<svg width="147" height="52" viewBox="0 0 147 52" fill="none" xmlns="http://www.w3.org/2000/svg">
<path d="M49.9902 51.4793V0.999805H37.9717L19.4727 18.3406L1 35.657V51.449L1.12891 51.327C2.13776 50.3675 10.3454 42.6939 19.3574 34.2742H19.3584C28.4023 25.8355 36.0182 18.7168 36.3213 18.4256L36.3232 18.4236L36.8633 17.908L38.5537 16.2928V33.5418H27.3564L26.6602 34.2127C26.381 34.4851 25.4874 35.3368 24.2715 36.49L19.9229 40.6023C18.3529 42.089 16.9225 43.4508 15.8789 44.449C16.2164 44.4525 16.5849 44.4576 16.9814 44.4607C19.1573 44.4779 22.1666 44.49 25.4834 44.49H38.5537V51.4793H49.9902Z" fill="#FFDEBA" stroke="#2D282D" stroke-width="2"/>
<path d="M73.0706 52.1452V52.1442L79.3342 52.1139L79.3674 33.7663L79.3909 14.4362L79.3918 13.4372H88.1487L94.427 7.5114C96.9305 5.14842 99.2626 2.94253 100.588 1.68718H55.7805V13.4372H66.8059V52.1637L73.0706 52.1452Z" fill="#FFDEBA" stroke="#2D282D" stroke-width="2"/>
<path d="M108.619 52.1667C113.28 52.1667 117.243 52.1555 120.113 52.1354C121.547 52.1254 122.707 52.1132 123.542 52.0993C123.961 52.0923 124.295 52.0845 124.542 52.0768C124.665 52.073 124.763 52.0698 124.836 52.0661C124.873 52.0643 124.901 52.0627 124.922 52.0612C124.937 52.0602 124.945 52.0595 124.948 52.0593L124.95 52.0583C127.666 51.7431 129.773 50.7011 131.999 48.5026C134.439 46.0895 135.929 43.3239 136.625 39.8718L136.626 39.8688C136.797 39.0404 136.89 37.7948 136.89 36.5016C136.89 35.2095 136.797 33.9542 136.625 33.1061V33.1052C135.957 29.7725 134.694 27.3007 132.682 25.2721C131.251 23.8334 129.853 22.9512 127.904 22.2673L127.901 22.2663C126.989 21.9434 126.537 21.7958 125.265 21.7145C123.916 21.6283 121.725 21.6247 117.359 21.6247H110.446V32.3386L115.917 32.3669L115.917 32.3678C119.482 32.3848 121.264 32.3763 122.236 32.4909C122.75 32.5516 123.176 32.6581 123.556 32.903C123.718 33.0073 123.866 33.1387 123.991 33.2624L124.292 33.5778C124.893 34.2017 125.254 35.0505 125.409 35.902C125.564 36.7583 125.526 37.697 125.249 38.5593H125.25C124.925 39.5934 124.012 40.6203 123.027 41.0739L123.028 41.0749L122.454 41.3503L122.249 41.4479H105.575V12.2917H133.222L139.365 6.48113C141.133 4.80814 142.767 3.26308 143.974 2.12175C144.123 1.98062 144.266 1.84574 144.402 1.71746C144.365 1.71703 144.327 1.71494 144.289 1.71453C141.77 1.68739 136.725 1.68718 126.718 1.68718H106.893L100.508 7.71648L94.1382 13.7341V52.1667H108.619Z" fill="#FFDEBA" stroke="#2D282D" stroke-width="2"/>
</svg>
