<svg width="65" height="85" viewBox="0 0 65 85" fill="none" xmlns="http://www.w3.org/2000/svg">
<g filter="url(#filter0_d_447_711)">
<path d="M32.738 39.4431C45.2517 39.6537 55.0525 41.5864 55.0525 43.9402C55.0516 46.4345 44.045 48.4567 30.4675 48.4568C16.8899 48.4568 5.88245 46.4345 5.88159 43.9402C5.88159 41.5866 15.6809 39.6539 28.1931 39.4431C17.1126 39.6434 8.46948 41.2917 8.46948 43.2947C8.46954 45.4328 18.3186 47.1658 30.4675 47.1658C42.6162 47.1657 52.4645 45.4328 52.4646 43.2947C52.4646 41.2915 43.82 39.6431 32.738 39.4431Z" fill="#FFDEBA"/>
<path d="M6.11858 15.3926C15.3872 -2.0286 45.7295 -2.67303 54.9721 14.7481C63.0682 30.0092 56.7407 41.3115 55.0473 43.8799C54.9485 42.4917 51.4437 41.2549 45.9946 40.4385V20.0664H14.9389V40.4385C9.41201 41.2666 5.88207 42.5271 5.88128 43.9395C5.88128 44.0065 5.89093 44.0733 5.90667 44.1397C4.57005 42.2403 -2.2957 31.2083 6.11858 15.3926Z" fill="#FFDEBA"/>
<path d="M9.99921 72.6885C9.50025 72.1885 13.3886 56.6885 6.01556 44.1885L11.0003 46.1885C14.3906 48.2509 10.4982 73.1885 9.99921 72.6885Z" fill="#FFDEBA"/>
<path d="M49.0002 65.1886C49.6163 65.6886 46.9995 56.1886 55.0019 44.1886L49.5017 46.6886C47.9995 60.1886 48.3842 64.6886 49.0002 65.1886Z" fill="#FFDEBA"/>
<path d="M11.0003 64.6886C11.4963 64.6009 20.8439 51.6353 33.5001 48.1885L29.4996 48.1886C22.0094 49.7264 10.5042 64.7762 11.0003 64.6886Z" fill="#FFDEBA"/>
<path d="M19.0004 69.6885C19.6006 69.563 29.5002 51.6885 46.0003 46.9793L41.5501 46.9792C28.5002 50.6885 18.4001 69.814 19.0004 69.6885Z" fill="#FFDEBA"/>
<path d="M34.3551 62.3423C34.7449 62.2608 41.3992 50.2042 52.1146 47.146L49.5002 46.6886C41.0255 49.0975 33.9653 62.4238 34.3551 62.3423Z" fill="#FFDEBA"/>
<path d="M15.0929 77.7888C14.938 77.2433 25.0817 52.9887 12.5003 46.9887L19.0963 46.7888C23.6715 57.7888 15.2478 78.3343 15.0929 77.7888Z" fill="#FFDEBA"/>
<path d="M27.012 74.6857C26.9342 74.1862 30.3354 48.3032 19.2637 47.8272L26.0002 48.1886C31.0002 58.6886 27.0897 75.1852 27.012 74.6857Z" fill="#FFDEBA"/>
<path d="M36.0873 66.1797C35.9838 65.8269 36.4402 49.3509 27.0005 48.1885L34.0002 48.1886C36.9562 55.3281 36.1909 66.5325 36.0873 66.1797Z" fill="#FFDEBA"/>
</g>
<defs>
<filter id="filter0_d_447_711" x="0" y="0" width="65.0005" height="85.0002" filterUnits="userSpaceOnUse" color-interpolation-filters="sRGB">
<feFlood flood-opacity="0" result="BackgroundImageFix"/>
<feColorMatrix in="SourceAlpha" type="matrix" values="0 0 0 0 0 0 0 0 0 0 0 0 0 0 0 0 0 0 127 0" result="hardAlpha"/>
<feOffset dx="2" dy="2"/>
<feGaussianBlur stdDeviation="2"/>
<feComposite in2="hardAlpha" operator="out"/>
<feColorMatrix type="matrix" values="0 0 0 0 0 0 0 0 0 0 0 0 0 0 0 0 0 0 0.25 0"/>
<feBlend mode="normal" in2="BackgroundImageFix" result="effect1_dropShadow_447_711"/>
<feBlend mode="normal" in="SourceGraphic" in2="effect1_dropShadow_447_711" result="shape"/>
</filter>
</defs>
</svg>
