<svg width="70" height="57" viewBox="0 0 70 57" fill="none" xmlns="http://www.w3.org/2000/svg">
<path d="M31.1417 24.6591C49.4538 3.70251 63.0718 -4.91299 64.6487 2.77106C65.6672 7.73417 49.6065 8.6756 36.8576 24.6591C17.5419 48.8756 0 47.9442 0 41.4244C0 34.9046 15.5709 42.4786 31.1417 24.6591Z" fill="#FFDEBA"/>
<path d="M35.4779 36.2786C53.79 15.322 67.408 6.70651 68.9849 14.3906C70.0033 19.3537 53.9427 20.2951 41.1938 36.2786C21.878 60.4951 4.33618 59.5637 4.33618 53.0439C4.33618 46.5241 19.907 54.0981 35.4779 36.2786Z" fill="#FFDEBA"/>
<path fill-rule="evenodd" clip-rule="evenodd" d="M60.5846 27.1778C69.4539 24.8494 75.3668 42.3127 62.7613 46.4112C56.5914 48.4172 47.9938 42.9441 47.7848 38.5538C47.5758 34.1635 54.4785 28.7809 60.5846 27.1778ZM60.6676 43.0499C68.5082 40.5007 64.8307 29.6391 59.3141 31.087C55.5162 32.0841 51.2224 35.4315 51.3522 38.1622C51.4822 40.893 56.8299 44.2976 60.6676 43.0499Z" fill="#FFDEBA"/>
<path fill-rule="evenodd" clip-rule="evenodd" d="M10.5979 32.6773C1.72855 35.0057 -4.18428 17.5424 8.42115 13.4439C14.5911 11.4379 23.1887 16.911 23.3977 21.3013C23.6067 25.6916 16.704 31.0742 10.5979 32.6773ZM10.5149 16.8052C2.6743 19.3544 6.35177 30.216 11.8684 28.7681C15.6663 27.771 19.9601 24.4236 19.8303 21.6929C19.7003 18.9621 14.3526 15.5575 10.5149 16.8052Z" fill="#FFDEBA"/>
</svg>
