<svg width="30" height="22" viewBox="0 0 30 22" fill="none" xmlns="http://www.w3.org/2000/svg">
<path d="M3.75 0C1.96542 0 0.471994 1.04474 0.0929726 2.44426L15 10.0792L29.907 2.44426C29.528 1.04474 28.0346 -1.18113e-10 26.25 -1.10594e-10L3.75 0Z" fill="#FFDEBA"/>
<path d="M0 15.4009L0 4.23827L10.881 9.81119L0 15.4009Z" fill="#FFDEBA"/>
<path d="M12.6776 10.7314L0.359758 17.0593C0.961133 18.1221 2.25315 18.8571 3.75 18.8571L15.4801 18.8571C15.1692 18.1199 15 17.3265 15 16.5C15 14.3266 16.1699 12.3822 18.0108 11.085L17.3224 10.7314L15 11.9208L12.6776 10.7314Z" fill="#FFDEBA"/>
<path d="M30 12.055L30 4.23827L19.119 9.81119L19.7527 10.1367C20.8661 9.68306 22.1163 9.42857 23.4375 9.42857C26.0881 9.42857 28.4532 10.4529 30 12.055Z" fill="#FFDEBA"/>
<path d="M29.6885 16.0981C29.6885 17.9325 28.6063 19.2792 26.7126 19.2792C25.7698 19.2792 24.8353 18.9219 24.6139 18.2623L24.5319 18.2623C24.3106 18.9151 23.5154 19.2723 22.63 19.2723C21.1871 19.2723 20.269 18.4204 20.269 17.0187L20.269 16.1874C20.269 14.8613 21.1708 13.9888 22.63 13.9888C23.7285 13.9888 24.2614 14.5109 24.4172 14.9781L24.4745 14.9781L24.4745 14.0849L26.1715 14.0849L26.1715 17.5272C26.1715 17.9532 26.5077 18.1868 26.9421 18.1868C27.5324 18.1868 28.1391 17.534 28.1391 16.0019L28.1391 15.8164C28.1391 13.8101 26.3601 12.1612 23.4826 12.1612L23.4088 12.1612C20.4411 12.1612 18.4572 13.8376 18.4572 16.4416L18.4572 16.6889C18.4572 19.6227 20.7772 20.8595 23.2776 20.8595L23.3596 20.8595C24.3106 20.8595 25.114 20.7495 25.5731 20.5778L25.5731 21.7252C25.1632 21.8832 24.368 22 23.253 22L23.1711 22C19.5721 22 16.875 20.1449 16.875 16.7302L16.875 16.3935C16.875 13.1368 19.5394 11 23.4088 11L23.4744 11C27.4504 11 29.6885 13.2467 29.6885 15.7683L29.6885 16.0981ZM22.1135 16.4279L22.1135 16.7851C22.1135 17.7058 22.5398 18.0425 23.2039 18.0425C23.7859 18.0425 24.2614 17.7745 24.2614 16.8745L24.2614 16.2973C24.2614 15.4866 23.7449 15.1843 23.1875 15.1843C22.5398 15.1843 22.1135 15.569 22.1135 16.4279Z" fill="#FFDEBA"/>
</svg>
