<svg width="245" height="79" viewBox="0 0 245 79" fill="none" xmlns="http://www.w3.org/2000/svg">
<path d="M15.7681 5.78162H153.583C160.854 5.78162 166.719 11.5019 166.719 18.4554V60.5463C166.719 67.4997 160.854 73.2191 153.583 73.2191H15.7681C8.45183 73.2189 2.59406 67.4971 2.6333 60.5511V18.4554C2.6333 11.502 8.49774 5.78181 15.7681 5.78162Z" stroke="#FFDEBA" stroke-width="2"/>
<path d="M79.163 26.3208H78.9928C75.6293 26.3208 72.7342 27.3916 70.35 29.492C67.9658 31.5925 66.7737 34.1871 66.7737 37.1523V41.6827C66.7737 44.648 67.9658 47.2427 70.35 49.3431C72.7342 51.4436 75.6293 52.5144 78.9928 52.5144H79.163C82.5265 52.5144 85.4216 51.4436 87.8058 49.3431C90.19 47.2427 91.3821 44.648 91.3821 41.6827V37.1523C91.3821 34.1871 90.19 31.5925 87.8058 29.492C85.4642 27.3503 82.5265 26.3208 79.163 26.3208ZM79.163 46.0894H78.9928C77.5878 46.0894 76.4383 45.6777 75.4591 44.8128C74.4797 43.9479 74.0115 42.9182 74.0115 41.6827V37.1523C74.0115 35.9168 74.4797 34.8872 75.4591 34.0224C76.4383 33.1575 77.5878 32.7456 78.9928 32.7456H79.163C80.5255 32.7456 81.6751 33.1575 82.6543 34.0224C83.6334 34.8872 84.1443 35.9168 84.1443 37.1523V41.6827C84.1443 42.9182 83.6761 43.9479 82.6543 44.8128C81.6751 45.6777 80.568 46.0894 79.163 46.0894Z" fill="#FFDEBA"/>
<path d="M60.9832 29.493C58.6841 27.3925 55.8743 26.3217 52.6385 26.3217H52.4682C50.6375 26.3217 48.892 26.6922 47.2742 27.4336C46.678 26.4041 45.5284 25.6627 44.2087 25.6627C42.8888 25.6627 41.7393 26.3628 41.1433 27.4336C39.5255 26.6922 37.7799 26.3217 35.9491 26.3217H35.7363C32.5005 26.3217 29.7331 27.3925 27.4341 29.493C25.1351 31.5933 23.9856 34.1879 23.9856 37.1533V41.6836C23.9856 44.6489 25.1351 47.2436 27.4341 49.3439C29.7331 51.4444 32.5431 52.5151 35.7363 52.5151H35.9065C37.6096 52.5151 39.1847 52.1857 40.7175 51.5679V55.7688C40.7175 56.6337 41.0582 57.4161 41.7393 58.0752C42.4205 58.6929 43.272 59.0224 44.2087 59.0224C45.0602 59.0224 45.8265 58.7752 46.5078 58.2399C47.1464 57.7457 47.5296 57.0867 47.6573 56.3454C47.6573 56.1807 47.6998 55.9747 47.6998 55.8101V51.6092C49.1899 52.2269 50.8079 52.5564 52.4682 52.5564H52.6385C55.8743 52.5564 58.6841 51.4856 60.9832 49.3852C63.2823 47.2847 64.4318 44.69 64.4318 41.7248V37.1945C64.4745 34.1879 63.2823 31.5933 60.9832 29.493ZM40.7601 41.6836C40.7601 42.9192 40.2918 43.9487 39.3125 44.8136C38.3759 45.6785 37.269 46.0904 35.9491 46.0904H35.7363C34.4164 46.0904 33.3095 45.6785 32.3303 44.8136C31.3936 43.9487 30.9253 42.9192 30.9253 41.6836V37.1533C30.9253 35.9177 31.3936 34.8882 32.3303 34.0233C33.2668 33.1584 34.3738 32.7465 35.7363 32.7465H35.9065C37.2264 32.7465 38.3333 33.1584 39.27 34.0644C40.2066 34.9293 40.675 35.9589 40.675 37.1945V41.6836H40.7601ZM57.4921 41.6836C57.4921 42.9192 57.0237 43.9487 56.0871 44.8136C55.1504 45.6785 54.0435 46.0904 52.6811 46.0904H52.5108C51.191 46.0904 50.084 45.6785 49.1474 44.8136C48.2107 43.9487 47.7424 42.9192 47.7424 41.6836V37.1533C47.7424 35.9177 48.2107 34.8882 49.1474 34.0233C50.084 33.1584 51.191 32.7465 52.5108 32.7465H52.6811C54.0009 32.7465 55.1504 33.1584 56.0871 34.0233C57.0237 34.8882 57.4921 35.9177 57.4921 37.1533V41.6836Z" fill="#FFDEBA"/>
<path d="M114.714 29.493C112.33 27.3925 109.392 26.3217 106.029 26.3217H105.859C103.858 26.3217 101.942 26.7335 100.196 27.5161C99.6001 26.4041 98.4505 25.6627 97.088 25.6627C95.1723 25.6627 93.5969 27.1865 93.5969 29.0398V29.493V31.6345V55.8101C93.5969 56.6748 93.9375 57.4574 94.6614 58.1164C95.3425 58.6929 96.2366 59.0224 97.2157 59.0224C98.1951 59.0224 99.0465 58.6929 99.8129 58.0752C100.494 57.4574 100.835 56.6748 100.835 55.8101V51.5679C102.367 52.1857 104.07 52.5151 105.816 52.5151H105.986C109.35 52.5151 112.287 51.4444 114.671 49.3439C117.056 47.2436 118.248 44.6489 118.248 41.6836V37.1533C118.333 34.1879 117.098 31.5933 114.714 29.493ZM111.053 41.6424C111.053 42.8779 110.584 43.9076 109.563 44.7725C108.583 45.6374 107.434 46.0491 106.071 46.0491H105.901C104.496 46.0491 103.347 45.6374 102.367 44.7725C101.388 43.9076 100.92 42.8779 100.92 41.6424V37.112C100.92 35.8765 101.388 34.8469 102.367 33.9821C103.347 33.1172 104.496 32.7053 105.901 32.7053H106.071C107.434 32.7053 108.583 33.1172 109.605 34.0233C110.584 34.8882 111.095 35.9177 111.095 37.1533V41.6424H111.053Z" fill="#FFDEBA"/>
<path d="M208.25 5.73999C227.574 5.74013 243.183 20.8858 243.183 39.4998C243.183 58.1138 227.574 73.2594 208.25 73.2595C188.926 73.2595 173.317 58.1139 173.317 39.4998C173.317 20.8857 188.926 5.73999 208.25 5.73999Z" stroke="#FFDEBA" stroke-width="2"/>
<path d="M225.364 31.8813C224.725 31.1399 223.832 30.6869 222.81 30.6869H220.085L213.317 22.9441C212.634 22.1616 211.401 22.0793 210.591 22.7381C210.208 23.0677 209.952 23.5207 209.91 24.0149C209.867 24.5091 210.037 25.0034 210.378 25.374L215.061 30.728H201.395L206.078 25.374C206.419 25.0034 206.589 24.5091 206.546 24.0149C206.504 23.5207 206.248 23.0677 205.865 22.7381C205.482 22.4087 204.972 22.244 204.461 22.2851C203.949 22.3264 203.481 22.5735 203.141 22.9441L196.371 30.6869H193.646C192.666 30.6869 191.731 31.1399 191.092 31.8813C190.453 32.6226 190.241 33.611 190.496 34.5582L194.285 50.0849C194.625 51.5263 195.945 52.5148 197.436 52.5148H219.02C220.511 52.5148 221.831 51.5263 222.171 50.0849L225.96 34.5582C226.217 33.611 226.003 32.6226 225.364 31.8813ZM203.523 46.4195C203.523 47.202 202.885 47.8198 202.076 47.8198H201.821C201.011 47.8198 200.372 47.202 200.372 46.4195V36.7823C200.372 35.9997 201.011 35.3819 201.821 35.3819H202.076C202.885 35.3819 203.523 35.9997 203.523 36.7823V46.4195ZM209.782 46.4195C209.782 47.202 209.143 47.8198 208.335 47.8198H208.079C207.27 47.8198 206.631 47.202 206.631 46.4195V36.7823C206.631 35.9997 207.27 35.3819 208.079 35.3819H208.335C209.143 35.3819 209.782 35.9997 209.782 36.7823V46.4195ZM216.084 46.4195C216.084 47.202 215.445 47.8198 214.636 47.8198H214.38C213.571 47.8198 212.933 47.202 212.933 46.4195V36.7823C212.933 35.9997 213.571 35.3819 214.38 35.3819H214.636C215.445 35.3819 216.084 35.9997 216.084 36.7823V46.4195Z" fill="#FFDEBA"/>
<path d="M141.749 25.9087C140.472 25.9087 139.365 26.5677 138.769 27.5149C138.769 27.5149 138.769 27.5562 138.726 27.5562C136.981 26.7325 135.065 26.3206 133.022 26.3206H132.851C129.488 26.3206 126.593 27.3914 124.208 29.4918C121.824 31.5923 120.632 34.1869 120.632 37.1523V41.6826C120.632 44.6478 121.824 47.2425 124.208 49.3429C126.593 51.4434 129.488 52.5142 132.851 52.5142H133.022C135.065 52.5142 136.981 52.1022 138.726 51.2786C139.365 52.267 140.472 52.9261 141.749 52.9261C143.708 52.9261 145.283 51.4021 145.283 49.5077V49.3017V48.6016V30.2332V29.4918V29.3272C145.283 27.4326 143.708 25.9087 141.749 25.9087ZM138.045 41.6826C138.045 42.918 137.577 43.9477 136.555 44.8126C135.576 45.6775 134.426 46.0894 133.064 46.0894H132.894C131.489 46.0894 130.339 45.6775 129.36 44.8126C128.381 43.9477 127.912 42.918 127.912 41.6826V37.1523C127.912 35.9167 128.381 34.887 129.36 34.0222C130.339 33.1573 131.489 32.7455 132.894 32.7455H133.064C134.426 32.7455 135.576 33.1573 136.598 34.0222C137.577 34.887 138.088 35.9167 138.088 37.1523V41.6826H138.045Z" fill="#FFDEBA"/>
</svg>
