<svg width="50" height="49" viewBox="0 0 50 49" fill="none" xmlns="http://www.w3.org/2000/svg">
<path d="M25.0819 0.000248812C11.2695 -0.0449411 0.0454294 11.1059 0.000239469 24.9183C-0.0359534 35.9808 7.08969 45.3479 17.0163 48.6929C18.2656 48.9157 18.7368 48.1672 18.7389 47.511C18.7409 46.9173 18.7161 44.9484 18.7229 42.8547C12.4379 43.9904 10.8217 41.2976 10.3263 39.8897C10.0474 39.17 8.83593 36.9473 7.77538 36.3501C6.90192 35.8785 5.65571 34.7181 7.74955 34.6937C9.71839 34.6689 11.1186 36.5173 11.5849 37.2688C13.8225 41.0574 17.4197 40.0066 18.8594 39.3551C19.0834 37.7308 19.7432 36.6392 20.464 36.0166C14.9036 35.3734 9.0982 33.1981 9.12948 23.6357C9.13838 20.9169 10.1145 18.6701 11.714 16.9254C11.466 16.2995 10.5994 13.7342 11.9856 10.3012C11.9856 10.3012 14.0815 9.65181 18.8522 12.8862C20.854 12.3302 22.9799 12.0559 25.1049 12.0629C27.2299 12.0698 29.354 12.358 31.3521 12.9271C36.144 9.69274 38.2355 10.3871 38.2355 10.3871C39.5992 13.8291 38.7159 16.3887 38.4638 17.0129C40.0518 18.7681 41.0133 20.99 41.0043 23.74C40.9729 33.3337 35.1223 35.4395 29.5577 36.0463C30.4614 36.8305 31.2378 38.3331 31.2301 40.6768C31.2192 44.0206 31.1791 46.7079 31.1764 47.5517C31.1742 48.2079 31.6404 48.9907 32.8912 48.7448C37.8596 47.0856 42.1826 43.9101 45.2517 39.6653C48.3208 35.4204 49.9815 30.32 50 25.0819C50.0452 11.2695 38.8943 0.0454388 25.0819 0.000248812Z" fill="#FFDEBA"/>
</svg>
