<svg width="46" height="46" viewBox="0 0 46 46" fill="none" xmlns="http://www.w3.org/2000/svg">
<path d="M22.5821 0.00623669C16.4714 -0.0137555 15.7044 0.0104549 13.3041 0.111822C10.9084 0.213673 9.27214 0.587545 7.83969 1.13927C6.35796 1.70912 5.10012 2.47377 3.8454 3.72078C2.58974 4.96731 1.81688 6.22012 1.23547 7.69761C0.672975 9.12689 0.287936 10.7611 0.172289 13.1552C0.0570924 15.5548 0.0264569 16.3221 0.00646476 22.4327C-0.0135274 28.5434 0.0111593 29.308 0.112058 31.7084C0.214378 34.1041 0.588249 35.7403 1.13951 37.1728C1.70983 38.6545 2.47447 39.9123 3.72148 41.1671C4.96755 42.4227 6.22035 43.1974 7.69738 43.777C9.12713 44.3381 10.7614 44.7226 13.1559 44.8402C15.5555 44.9572 16.3218 44.9865 22.432 45.0065C28.5432 45.0264 29.3078 45.0022 31.7081 44.9009C34.1038 44.799 35.742 44.4251 37.1753 43.8734C38.6566 43.3036 39.9126 42.537 41.1668 41.2896C42.4225 40.043 43.1953 38.7902 43.7768 37.3127C44.3346 35.8834 44.7196 34.2492 44.8399 31.8552C44.9556 29.4555 44.9862 28.6906 45.0062 22.58C45.0262 16.4693 45.0006 15.7023 44.9006 13.302C44.796 10.9063 44.4216 9.27002 43.8732 7.83758C43.3015 6.35584 42.5368 5.09801 41.2893 3.84328C40.0419 2.58762 38.7928 1.81477 37.3134 1.2357C35.8809 0.6746 34.2462 0.290027 31.8512 0.172502C29.4515 0.0554311 28.6876 0.026212 22.575 0.00621369L22.5821 0.00623669ZM20.5504 4.05434C21.1494 4.05536 21.8179 4.05849 22.5688 4.06094C28.5763 4.0806 29.2883 4.10449 31.6603 4.22007C33.8537 4.32756 35.0432 4.69802 35.8353 5.00858C36.884 5.41983 37.631 5.90978 38.4154 6.69986C39.2003 7.48994 39.6854 8.24154 40.0907 9.29288C40.3961 10.0861 40.7592 11.2779 40.8519 13.472C40.9519 15.8442 40.9731 16.5568 40.9534 22.5615C40.9338 28.5663 40.908 29.2787 40.7924 31.6502C40.6849 33.8436 40.3145 35.0331 40.0039 35.8243C39.5927 36.8729 39.1018 37.619 38.3117 38.4035C37.5216 39.1884 36.7724 39.6734 35.7205 40.0778C34.9273 40.3846 33.7346 40.7463 31.5405 40.8395C29.1683 40.9395 28.4557 40.9606 22.4481 40.941C16.4401 40.9213 15.7282 40.8955 13.3567 40.78C11.1632 40.6715 9.97379 40.3011 9.1812 39.9905C8.13253 39.5793 7.38412 39.0893 6.59919 38.2992C5.81426 37.5092 5.32921 36.7594 4.92389 35.7076C4.61851 34.9144 4.25538 33.7226 4.16271 31.5285C4.06266 29.1563 4.04342 28.4437 4.06308 22.4352C4.08274 16.4268 4.10662 15.7181 4.2222 13.3465C4.32969 11.1531 4.70015 9.96367 5.01071 9.17155C5.42196 8.12288 5.91285 7.37447 6.70293 6.58954C7.49301 5.80462 8.24461 5.31957 9.29596 4.91425C10.0901 4.60747 11.2824 4.24574 13.4765 4.15214C15.5524 4.06518 16.3569 4.03968 20.5504 4.04872L20.5504 4.05434ZM34.567 7.83619C33.0763 7.83132 31.863 9.03534 31.8581 10.5264C31.8532 12.0171 33.0587 13.2304 34.5493 13.2353C36.0399 13.2402 37.2533 12.0347 37.2581 10.5441C37.263 9.05347 36.0576 7.84013 34.567 7.83526L34.567 7.83619ZM22.5463 10.9516C16.1651 10.9307 10.9746 16.0874 10.9537 22.4685C10.9328 28.8497 16.0895 34.0379 22.4707 34.0587C28.8518 34.0796 34.0404 28.9253 34.0613 22.5441C34.0822 16.163 28.9269 10.9725 22.5458 10.9516L22.5463 10.9516ZM22.533 15.0063C26.6749 15.0199 30.022 18.3885 30.0085 22.5309C29.9949 26.6728 26.6258 30.0199 22.4839 30.0064C18.3416 29.9928 14.9949 26.6237 15.0084 22.4818C15.022 18.3394 18.3906 14.9928 22.533 15.0063V15.0063Z" fill="#FFDEBA"/>
</svg>
