<svg width="34" height="32" viewBox="0 0 34 32" fill="none" xmlns="http://www.w3.org/2000/svg">
<path fill-rule="evenodd" clip-rule="evenodd" d="M31.2767 0.520239C31.5699 0.46244 31.8752 0.530969 32.1085 0.706885C32.3418 0.882799 32.4788 1.14725 32.4814 1.42807L32.7244 27.6769C32.7285 28.1237 32.3957 28.5112 31.9292 28.6033L21.947 30.5708C21.8177 30.5962 21.6841 30.5975 21.5544 30.5744L11.7341 28.8273L1.94782 30.7559C1.65457 30.8137 1.34931 30.7451 1.11598 30.5692C0.882699 30.3933 0.745679 30.1288 0.74308 29.848L0.500147 3.59914C0.496015 3.15235 0.828848 2.76484 1.29532 2.6728L11.2775 0.705332C11.4068 0.679861 11.5404 0.678624 11.6701 0.701699L21.4904 2.44878L31.2767 0.520239ZM21.5956 3.89513C21.535 3.90703 21.4728 3.90761 21.412 3.89683L21.0031 3.82347L21.2366 29.0558L21.7375 29.1449L22.2366 29.0465L22.0031 3.81421L21.5956 3.89513ZM10.9879 2.22859L11.2214 27.4609L11.6289 27.381L11.7206 27.3713C11.7514 27.371 11.7821 27.3739 11.8125 27.3793L12.2214 27.4516L11.9879 2.21933L11.487 2.13021L10.9879 2.22859Z" fill="#FFDEBA"/>
<path d="M31.2767 0.520239L31.3734 1.0108L31.3734 1.0108L31.2767 0.520239ZM32.1085 0.706885L32.4096 0.307668L32.4095 0.307643L32.1085 0.706885ZM32.4814 1.42807L32.9814 1.42345L32.9814 1.42344L32.4814 1.42807ZM31.9292 28.6033L32.0259 29.0939L32.026 29.0938L31.9292 28.6033ZM21.947 30.5708L21.8503 30.0802L21.947 30.5708ZM21.5544 30.5744L21.642 30.0821L21.642 30.0821L21.5544 30.5744ZM11.7341 28.8273L11.8217 28.335C11.7607 28.3242 11.6982 28.3248 11.6374 28.3367L11.7341 28.8273ZM1.94782 30.7559L1.85115 30.2653L1.85114 30.2653L1.94782 30.7559ZM1.11598 30.5692L0.814937 30.9684L0.814973 30.9684L1.11598 30.5692ZM0.500147 3.59914L0.000167897 3.60376L0.000167937 3.60377L0.500147 3.59914ZM1.29532 2.6728L1.19863 2.18224L1.19852 2.18226L1.29532 2.6728ZM11.2775 0.705332L11.1808 0.214769L11.1808 0.214769L11.2775 0.705332ZM11.6701 0.701699L11.5825 1.19397L11.5825 1.19397L11.6701 0.701699ZM21.4904 2.44878L21.4028 2.94105C21.4638 2.9519 21.5263 2.95132 21.5871 2.93935L21.4904 2.44878ZM21.5956 3.89513L21.692 4.38576L21.693 4.38556L21.5956 3.89513ZM21.412 3.89683L21.3237 4.38898L21.3247 4.38916L21.412 3.89683ZM21.0031 3.82347L21.0914 3.33133C20.9449 3.30503 20.7943 3.3454 20.6805 3.44145C20.5668 3.5375 20.5017 3.67923 20.5031 3.82809L21.0031 3.82347ZM21.2366 29.0558L20.7366 29.0604C20.7389 29.301 20.9121 29.5059 21.149 29.5481L21.2366 29.0558ZM21.7375 29.1449L21.6499 29.6372C21.7109 29.648 21.7734 29.6474 21.8342 29.6355L21.7375 29.1449ZM22.2366 29.0465L22.3333 29.5371C22.5693 29.4906 22.7388 29.2825 22.7366 29.0419L22.2366 29.0465ZM22.0031 3.81421L22.503 3.80958C22.5017 3.66072 22.434 3.52022 22.3185 3.42629C22.203 3.33237 22.0517 3.29479 21.9057 3.32379L22.0031 3.81421ZM10.9879 2.22859L10.8912 1.73802C10.6552 1.78455 10.4857 1.99262 10.4879 2.23321L10.9879 2.22859ZM11.2214 27.4609L10.7215 27.4655C10.7228 27.6142 10.7903 27.7545 10.9055 27.8485C11.0208 27.9424 11.1718 27.9802 11.3177 27.9515L11.2214 27.4609ZM11.6289 27.381L11.5767 26.8837C11.5619 26.8852 11.5472 26.8875 11.5327 26.8903L11.6289 27.381ZM11.7206 27.3713L11.716 26.8713C11.7001 26.8715 11.6842 26.8724 11.6684 26.8741L11.7206 27.3713ZM11.8125 27.3793L11.7252 27.8716L11.7253 27.8716L11.8125 27.3793ZM12.2214 27.4516L12.1342 27.944C12.2806 27.9699 12.4309 27.9293 12.5444 27.8333C12.6579 27.7372 12.7227 27.5957 12.7214 27.447L12.2214 27.4516ZM11.9879 2.21933L12.4878 2.2147C12.4856 1.97411 12.3123 1.76921 12.0755 1.72706L11.9879 2.21933ZM11.487 2.13021L11.5746 1.63794C11.5136 1.62709 11.4511 1.62767 11.3903 1.63965L11.487 2.13021ZM31.2767 0.520239L31.3734 1.0108C31.5307 0.979797 31.6906 1.01799 31.8075 1.10613L32.1085 0.706885L32.4095 0.307643C32.0598 0.0439495 31.6092 -0.0549169 31.18 0.029677L31.2767 0.520239ZM32.1085 0.706885L31.8075 1.1061C31.923 1.19324 31.9804 1.31485 31.9814 1.43271L32.4814 1.42807L32.9814 1.42344C32.9773 0.979645 32.7606 0.572354 32.4096 0.307668L32.1085 0.706885ZM32.4814 1.42807L31.9814 1.4327L32.2244 27.6816L32.7244 27.6769L33.2243 27.6723L32.9814 1.42345L32.4814 1.42807ZM32.7244 27.6769L32.2244 27.6816C32.2261 27.8656 32.0854 28.0628 31.8324 28.1128L31.9292 28.6033L32.026 29.0938C32.706 28.9597 33.2309 28.3819 33.2243 27.6723L32.7244 27.6769ZM31.9292 28.6033L31.8325 28.1127L21.8503 30.0802L21.947 30.5708L22.0437 31.0613L32.0259 29.0939L31.9292 28.6033ZM21.947 30.5708L21.8503 30.0802C21.7818 30.0937 21.7107 30.0943 21.642 30.0821L21.5544 30.5744L21.4668 31.0667C21.6575 31.1006 21.8536 31.0988 22.0437 31.0613L21.947 30.5708ZM21.5544 30.5744L21.642 30.0821L11.8217 28.335L11.7341 28.8273L11.6465 29.3196L21.4668 31.0667L21.5544 30.5744ZM11.7341 28.8273L11.6374 28.3367L1.85115 30.2653L1.94782 30.7559L2.0445 31.2464L11.8308 29.3179L11.7341 28.8273ZM1.94782 30.7559L1.85114 30.2653C1.69383 30.2963 1.53389 30.2581 1.41699 30.17L1.11598 30.5692L0.814973 30.9684C1.16472 31.2321 1.61531 31.331 2.04451 31.2464L1.94782 30.7559ZM1.11598 30.5692L1.41703 30.17C1.30146 30.0828 1.24415 29.9612 1.24306 29.8434L0.74308 29.848L0.243102 29.8526C0.247209 30.2965 0.463941 30.7037 0.814937 30.9684L1.11598 30.5692ZM0.74308 29.848L1.24306 29.8434L1.00013 3.59451L0.500147 3.59914L0.000167937 3.60377L0.243102 29.8526L0.74308 29.848ZM0.500147 3.59914L1.00013 3.59452C0.998424 3.41051 1.13915 3.21325 1.39211 3.16334L1.29532 2.6728L1.19852 2.18226C0.518542 2.31643 -0.00639282 2.89419 0.000167897 3.60376L0.500147 3.59914ZM1.29532 2.6728L1.39201 3.16336L11.3742 1.19589L11.2775 0.705332L11.1808 0.214769L1.19863 2.18224L1.29532 2.6728ZM11.2775 0.705332L11.3742 1.19589C11.4427 1.1824 11.5138 1.18175 11.5825 1.19397L11.6701 0.701699L11.7577 0.209431C11.567 0.175501 11.3709 0.177317 11.1808 0.214769L11.2775 0.705332ZM11.6701 0.701699L11.5825 1.19397L21.4028 2.94105L21.4904 2.44878L21.578 1.95651L11.7577 0.209428L11.6701 0.701699ZM21.4904 2.44878L21.5871 2.93935L31.3734 1.0108L31.2767 0.520239L31.18 0.0296741L21.3937 1.95822L21.4904 2.44878ZM21.5956 3.89513L21.4992 3.40451L21.4993 3.40451L21.412 3.89683L21.3247 4.38916C21.4463 4.41071 21.5708 4.40956 21.692 4.38576L21.5956 3.89513ZM21.412 3.89683L21.5003 3.40469L21.0914 3.33133L21.0031 3.82347L20.9148 4.31561L21.3237 4.38897L21.412 3.89683ZM21.0031 3.82347L20.5031 3.82809L20.7366 29.0604L21.2366 29.0558L21.7366 29.0512L21.5031 3.81884L21.0031 3.82347ZM21.2366 29.0558L21.149 29.5481L21.6499 29.6372L21.7375 29.1449L21.8251 28.6526L21.3242 28.5635L21.2366 29.0558ZM21.7375 29.1449L21.8342 29.6355L22.3333 29.5371L22.2366 29.0465L22.1399 28.556L21.6408 28.6543L21.7375 29.1449ZM22.2366 29.0465L22.7366 29.0419L22.503 3.80958L22.0031 3.81421L21.5031 3.81884L21.7366 29.0512L22.2366 29.0465ZM22.0031 3.81421L21.9057 3.32379L21.4982 3.40471L21.5956 3.89513L21.693 4.38556L22.1005 4.30463L22.0031 3.81421ZM10.9879 2.22859L10.4879 2.23321L10.7215 27.4655L11.2214 27.4609L11.7214 27.4563L11.4879 2.22396L10.9879 2.22859ZM11.2214 27.4609L11.3177 27.9515L11.7252 27.8716L11.6289 27.381L11.5327 26.8903L11.1252 26.9703L11.2214 27.4609ZM11.6289 27.381L11.6812 27.8782L11.7729 27.8686L11.7206 27.3713L11.6684 26.8741L11.5767 26.8837L11.6289 27.381ZM11.7206 27.3713L11.7253 27.8713L11.7252 27.8716L11.8125 27.3793L11.8998 26.8869C11.8421 26.8767 11.7805 26.8707 11.716 26.8713L11.7206 27.3713ZM11.8125 27.3793L11.7253 27.8716L12.1342 27.944L12.2214 27.4516L12.3086 26.9593L11.8997 26.8869L11.8125 27.3793ZM12.2214 27.4516L12.7214 27.447L12.4878 2.2147L11.9879 2.21933L11.4879 2.22396L11.7214 27.4563L12.2214 27.4516ZM11.9879 2.21933L12.0755 1.72706L11.5746 1.63794L11.487 2.13021L11.3994 2.62248L11.9003 2.7116L11.9879 2.21933ZM11.487 2.13021L11.3903 1.63965L10.8912 1.73802L10.9879 2.22859L11.0846 2.71915L11.5837 2.62077L11.487 2.13021Z" fill="#494149"/>
<path d="M15.9741 9.49023H29.9741V22.4902H15.9741V9.49023Z" fill="#FFDEBA"/>
<path d="M21.5876 8.35352C24.7771 8.35352 27.363 10.9395 27.363 14.1289C27.363 15.1724 27.0008 16.2877 26.4685 17.3662C25.9354 18.4463 25.2259 19.5002 24.5193 20.4238C23.8124 21.3479 23.1056 22.1445 22.5759 22.71C22.311 22.9928 22.0901 23.2184 21.9353 23.373C21.8579 23.4503 21.7973 23.5103 21.7556 23.5508C21.7348 23.571 21.7186 23.5863 21.7078 23.5967C21.7023 23.6019 21.6979 23.6057 21.6951 23.6084L21.6912 23.6123L21.5876 23.7109L21.4841 23.6123L21.4802 23.6084C21.4774 23.6057 21.473 23.6019 21.4675 23.5967C21.4567 23.5863 21.4404 23.571 21.4197 23.5508C21.378 23.5103 21.3174 23.4503 21.24 23.373C21.0852 23.2184 20.8643 22.9928 20.5994 22.71C20.0697 22.1445 19.3629 21.3479 18.656 20.4238C17.9494 19.5002 17.2399 18.4463 16.7068 17.3662C16.1745 16.2877 15.8123 15.1724 15.8123 14.1289C15.8123 10.9395 18.3982 8.35352 21.5876 8.35352ZM21.5876 9.5918C19.0817 9.5918 17.0505 11.6229 17.0505 14.1289C17.0505 14.9045 17.3258 15.8228 17.8171 16.8184C18.3026 17.8019 18.9607 18.786 19.6384 19.6719C20.3138 20.5547 20.9925 21.3196 21.5027 21.8643C21.5315 21.895 21.56 21.9248 21.5876 21.9541C21.6153 21.9248 21.6438 21.895 21.6726 21.8643C22.1828 21.3196 22.8615 20.5547 23.5369 19.6719C24.2145 18.786 24.8727 17.8019 25.3582 16.8184C25.8495 15.8228 26.1248 14.9045 26.1248 14.1289C26.1248 11.6229 24.0936 9.5918 21.5876 9.5918ZM21.5876 11.166C23.2238 11.166 24.5505 12.4928 24.5505 14.1289C24.5505 15.765 23.2238 17.0918 21.5876 17.0918C19.9515 17.0918 18.6248 15.765 18.6248 14.1289C18.6248 12.4928 19.9515 11.166 21.5876 11.166ZM21.5876 12.4043C20.635 12.4043 19.863 13.1762 19.863 14.1289C19.863 15.0816 20.635 15.8535 21.5876 15.8535C22.5403 15.8535 23.3123 15.0816 23.3123 14.1289C23.3123 13.1762 22.5403 12.4043 21.5876 12.4043Z" fill="#494149" stroke="#494149" stroke-width="0.3"/>
<path d="M21.5876 11.1035C23.1893 11.1035 24.488 12.4023 24.488 14.0039C24.488 15.6055 23.1893 16.9043 21.5876 16.9043C19.986 16.9043 18.6873 15.6055 18.6873 14.0039C18.6873 12.4023 19.986 11.1035 21.5876 11.1035ZM21.5876 12.2168C20.6004 12.2168 19.8005 13.0167 19.8005 14.0039C19.8005 14.9911 20.6004 15.791 21.5876 15.791C22.5749 15.791 23.3748 14.9911 23.3748 14.0039C23.3748 13.0167 22.5749 12.2168 21.5876 12.2168Z" fill="#EC5800" stroke="#EC5800" stroke-width="0.8" stroke-linejoin="round"/>
</svg>
