<svg width="205" height="46" viewBox="0 0 205 46" fill="none" xmlns="http://www.w3.org/2000/svg">
<mask id="mask0_446_673" style="mask-type:luminance" maskUnits="userSpaceOnUse" x="0" y="0" width="205" height="46">
<path d="M204.5 0.5V45.2656H0.5V0.5H204.5Z" fill="white" stroke="white"/>
</mask>
<g mask="url(#mask0_446_673)">
<path d="M142.236 1.2511V26.1915C142.236 27.6918 142.37 31.1278 143.535 33.5411V33.5421C145.038 36.6888 147.859 37.4873 150.148 37.4874C152.437 37.4874 155.257 36.6881 156.76 33.5411C157.349 32.3443 157.672 30.877 157.848 29.5431C158.025 28.2 158.061 26.9559 158.061 26.1915V1.2511H168.55V28.1632C168.55 31.4632 168.133 36.0472 164.783 39.8488L164.782 39.8497C160.491 44.7418 153.978 45.2657 150.148 45.2657C146.317 45.2657 139.806 44.7416 135.514 39.8497L135.513 39.8488C132.163 36.0472 131.746 31.4633 131.746 28.1632V1.2511H142.236Z" fill="#FFDEBA" stroke="#2D282D"/>
<path d="M97.5547 1.2511L106.905 35.6173L107.006 35.9855H107.908L108.009 35.6173L117.405 1.2511H128.008L113.789 44.4679H100.478L86.4863 1.2511H97.5547Z" fill="#FFDEBA" stroke="#2D282D"/>
<path d="M65.3691 0.5H65.7393C69.4145 0.5 76.1821 1.06416 81.1299 6.21387C86.0356 11.3211 86.6426 18.5137 86.6426 22.8594C86.6426 27.2046 86.0359 34.3959 81.1318 39.5029C76.0926 44.6998 69.1865 45.2188 65.5537 45.2188C61.9208 45.2187 55.0147 44.6997 49.9756 39.5029C45.0705 34.3947 44.419 27.2011 44.4189 22.8594C44.4189 18.5171 45.0708 11.3223 49.9775 6.21387C54.9253 1.06409 61.6938 0.5 65.3691 0.5ZM65.5537 8.18359C61.9486 8.18368 59.487 9.91807 58.0596 12.0068C55.644 15.3843 55.3252 19.9871 55.3252 22.8594C55.3252 25.726 55.5955 30.3342 58.0615 33.7148C59.4882 35.8008 61.9026 37.5351 65.5537 37.5352C69.1646 37.5352 71.6282 35.7943 73.0547 33.7012C75.512 30.3217 75.7832 25.7224 75.7832 22.8594C75.7832 19.9927 75.5122 15.3837 73.0459 12.0029C71.6192 9.91717 69.2045 8.18359 65.5537 8.18359Z" fill="#FFDEBA" stroke="#2D282D"/>
<path d="M190.361 0.453125H190.638C192.141 0.453125 194.812 0.68499 196.593 1.27051V1.27148C198.846 2.03223 201.05 3.66711 201.83 6.65137V6.6543C202.167 7.91693 201.982 9.33155 201.69 10.4658C201.565 10.9493 201.423 11.371 201.302 11.6943C200.13 10.6217 198.588 9.81321 197.054 9.24707C195.263 8.58587 193.427 8.23276 192.093 8.18359H192.09C190.691 8.13929 188.719 8.17264 186.932 8.91895L186.583 9.0752C184.676 9.96252 184.07 11.4646 184.07 12.7207C184.07 13.6356 184.361 14.5469 184.819 15.0879H184.82C185.358 15.7967 186.213 16.356 187.337 16.8564C188.467 17.359 189.921 17.8241 191.709 18.3184L191.712 18.3193L192.408 18.5068L192.41 18.5078C193.457 18.7847 195.011 19.2705 196.581 19.918C198.157 20.5685 199.712 21.3677 200.79 22.2588L200.792 22.2598C203.777 24.7063 204.499 28.0479 204.5 31.167C204.5 36.3795 202.414 39.5507 200.224 41.4014L199.786 41.7539C196.118 44.5639 191.341 45.2656 187.118 45.2656C184.765 45.2656 181.554 44.7116 179.229 43.5791H179.228C177.155 42.5504 174.869 40.8427 174.185 38.3008L174.125 38.0527C173.821 36.6694 173.959 35.0681 174.186 33.7832C174.279 33.26 174.387 32.7978 174.48 32.4346C178.421 36.4372 183.174 37.5351 186.098 37.5352C187.024 37.5352 188.135 37.4633 189.189 37.2559C190.231 37.0507 191.274 36.7017 192.015 36.1113L192.014 36.1104C192.884 35.435 193.733 34.3658 193.733 32.6699C193.733 31.8483 193.567 31.1545 193.239 30.5439C192.913 29.9373 192.442 29.4415 191.875 28.9922L191.875 28.9912L191.531 28.7363C190.709 28.1617 189.751 27.7275 188.679 27.3359C188.07 27.1132 187.411 26.8999 186.71 26.6816L184.487 25.9961L182.679 25.4326C179.321 24.3748 175.867 22.2376 174.327 18.9043C173.663 17.3812 173.302 15.3388 173.302 13.7061C173.302 11.358 173.786 9.24202 174.845 7.4082C175.903 5.57662 177.554 3.99597 179.936 2.74316C183.09 1.09969 186.481 0.453125 190.361 0.453125Z" fill="#FFDEBA" stroke="#2D282D"/>
<path d="M4.40137 1.06335C9.86795 1.06345 15.9437 4.33917 18.915 10.451C20.4438 13.5958 22.9222 18.701 25.0186 23.0194C26.0666 25.1784 27.0194 27.1406 27.71 28.5634C28.0552 29.2746 28.3349 29.8513 28.5283 30.2499C28.625 30.4491 28.701 30.6038 28.752 30.7089C28.7774 30.7614 28.7965 30.8021 28.8096 30.829C28.816 30.8423 28.8209 30.8525 28.8242 30.8593L28.8291 30.869L28.9658 31.1512H29.9209L29.918 30.6483L29.7354 1.06335H39.2031V44.4208H34.6992C31.724 44.4207 29.1603 43.7253 26.9385 42.2509C24.8516 40.8659 23.0351 38.773 21.4648 35.8544L21.1543 35.2596C20.0197 33.0074 17.4266 27.7997 15.1162 23.1532C13.961 20.8298 12.8766 18.6465 12.0811 17.0448C11.6835 16.2443 11.3579 15.589 11.1318 15.1337C11.0188 14.906 10.93 14.728 10.8701 14.6073C10.8402 14.5471 10.8181 14.5006 10.8027 14.4696C10.795 14.4541 10.7891 14.4423 10.7852 14.4344C10.7832 14.4305 10.7813 14.4276 10.7803 14.4257L10.7793 14.4237V14.4227L10.6406 14.1454H9.68555L9.69238 14.6512L10.0566 44.4208H0.5V1.06335H4.40137Z" fill="#FFDEBA" stroke="#2D282D"/>
</g>
</svg>
