<svg width="61" height="72" viewBox="0 0 61 72" fill="none" xmlns="http://www.w3.org/2000/svg">
<g filter="url(#filter0_d_486_1007)">
<circle cx="28.6267" cy="36.9091" r="25.1365" fill="url(#paint0_radial_486_1007)"/>
<path d="M26.9971 11.7726C35.9626 16.155 41.0641 27.4416 38.6748 39.0089C36.1373 51.2935 26.0467 59.5597 15.4785 58.5167C14.1095 57.6119 12.8345 56.5769 11.667 55.4327C21.4826 55.8835 30.6724 48.0654 33.0371 36.6173C35.0725 26.7634 31.4515 17.1217 24.6016 12.1251C25.3877 11.971 26.1868 11.8528 26.9971 11.7726Z" fill="#1F181F"/>
<path d="M39.8795 41.8535C40.985 38.5283 44.2007 36.6646 47.0614 37.6911C49.9221 38.7177 51.3452 42.2459 50.2398 45.5711C49.1343 48.8962 45.9185 50.7591 43.0578 49.7326C40.1975 48.7058 38.7743 45.1785 39.8795 41.8535ZM46.1745 40.715C44.7983 40.2212 43.2511 41.1172 42.7193 42.7169C42.1876 44.3163 42.8723 46.0133 44.2481 46.5074C45.6243 47.0012 47.1715 46.105 47.7033 44.5055C48.2351 42.9059 47.5505 41.2089 46.1745 40.715Z" fill="#1F181F"/>
<path d="M41.2229 15.1365C47.6907 18.2446 52.3525 24.8413 52.9365 32.9651C53.3284 38.4184 51.813 43.6371 48.988 47.8773C49.2388 46.8825 49.3384 45.6239 49.231 44.2687C49.1054 42.6842 48.7199 41.276 48.2066 40.2913C50.0518 37.1214 51.009 33.3611 50.728 29.4489C50.261 22.9514 46.5016 17.6857 41.3008 15.2537C41.2753 15.2147 41.2485 15.1753 41.2229 15.1365Z" fill="#1F181F"/>
<path d="M18.992 28.3592C20.0056 24.5194 23.4891 22.1948 26.7727 23.1672C30.0562 24.1398 31.8968 28.0411 30.8834 31.8811C29.87 35.721 26.3863 38.0454 23.1027 37.0731C19.8189 36.1007 17.9786 32.1993 18.992 28.3592ZM25.9839 26.6508C24.4043 26.1831 22.7286 27.3012 22.241 29.1483C21.7535 30.9956 22.6389 32.8728 24.2186 33.3406C25.7981 33.808 27.4739 32.6893 27.9614 30.8421C28.4486 28.9951 27.5633 27.1187 25.9839 26.6508Z" fill="#1F181F"/>
<path d="M17.6407 21.3838C21.39 20.7253 24.9791 21.6293 27.9806 23.7037C27.7729 24.1472 27.6867 24.6546 27.7597 25.1772C27.7851 25.359 27.8277 25.5344 27.8871 25.7007C26.8273 25.6868 25.7519 25.7508 24.6682 25.9024C23.2026 26.1073 21.7945 26.459 20.4575 26.9379C18.9785 26.5754 17.426 26.5264 15.8568 26.8407C8.78917 28.2567 4.17072 34.9441 5.39938 43.7064C5.76705 46.3278 6.61819 48.8796 7.81818 51.1314C7.84961 51.2358 7.88287 51.3396 7.916 51.4431C6.52777 49.2244 5.45797 46.6291 4.82285 43.7298C2.75662 33.1033 9.0713 23.1008 17.6407 21.3838Z" fill="#1F181F"/>
<path d="M28.3079 0.392901C29.6442 0.510806 30.843 1.04562 31.7895 1.85674C28.9147 2.17225 26.5664 4.47872 26.3025 7.46968C26.1348 9.37278 26.847 11.1506 28.1018 12.4017C25.1429 11.7156 23.0644 8.93942 23.3387 5.827C23.5756 3.1405 25.4944 1.00689 27.9657 0.371545C28.0792 0.375349 28.1934 0.382807 28.3079 0.392901Z" fill="url(#paint1_linear_486_1007)"/>
<path d="M13.0758 7.04105C15.0478 5.79515 17.7905 5.37507 20.562 6.10871C21.413 6.33399 22.2074 6.6531 22.9318 7.04589C23.151 8.93863 24.1637 10.6377 25.6739 11.7431C24.1462 11.6782 22.5807 11.4483 21.0112 11.0328C17.9562 10.2241 15.2594 8.82151 13.0758 7.04105Z" fill="url(#paint2_linear_486_1007)"/>
</g>
<defs>
<filter id="filter0_d_486_1007" x="0" y="0.371582" width="60.2295" height="70.674" filterUnits="userSpaceOnUse" color-interpolation-filters="sRGB">
<feFlood flood-opacity="0" result="BackgroundImageFix"/>
<feColorMatrix in="SourceAlpha" type="matrix" values="0 0 0 0 0 0 0 0 0 0 0 0 0 0 0 0 0 0 127 0" result="hardAlpha"/>
<feOffset dx="2" dy="5"/>
<feGaussianBlur stdDeviation="2"/>
<feComposite in2="hardAlpha" operator="out"/>
<feColorMatrix type="matrix" values="0 0 0 0 0 0 0 0 0 0 0 0 0 0 0 0 0 0 0.5 0"/>
<feBlend mode="normal" in2="BackgroundImageFix" result="effect1_dropShadow_486_1007"/>
<feBlend mode="normal" in="SourceGraphic" in2="effect1_dropShadow_486_1007" result="shape"/>
</filter>
<radialGradient id="paint0_radial_486_1007" cx="0" cy="0" r="1" gradientUnits="userSpaceOnUse" gradientTransform="translate(16.5609 14.3271) rotate(67.825) scale(58.2055)">
<stop stop-color="#EC5800"/>
<stop offset="0.586538" stop-color="#E55500"/>
<stop offset="0.903846" stop-color="#2D282D"/>
</radialGradient>
<linearGradient id="paint1_linear_486_1007" x1="28.5604" y1="4.4112" x2="26.8192" y2="12.2886" gradientUnits="userSpaceOnUse">
<stop stop-color="#EC5800"/>
<stop offset="1" stop-color="#1F181F"/>
</linearGradient>
<linearGradient id="paint2_linear_486_1007" x1="19.568" y1="5.82686" x2="25.8166" y2="12.1742" gradientUnits="userSpaceOnUse">
<stop stop-color="#EC5800"/>
<stop offset="1" stop-color="#863200"/>
</linearGradient>
</defs>
</svg>
