<svg width="50" height="50" viewBox="0 0 50 50" fill="none" xmlns="http://www.w3.org/2000/svg">
<g filter="url(#filter0_d_479_940)">
<path d="M30.8876 28.5667C32.7657 26.0098 33.875 22.8532 33.875 19.4375C33.875 10.9116 26.9634 4 18.4375 4C9.9116 4 3 10.9116 3 19.4375C3 27.9634 9.9116 34.875 18.4375 34.875C21.8541 34.875 25.0115 33.7651 27.5688 31.8861L27.5667 31.8876C27.6368 31.9826 27.7148 32.0735 27.8008 32.1595L36.9456 41.3044C37.8731 42.2319 39.3769 42.2319 40.3044 41.3044C41.2319 40.3769 41.2319 38.8731 40.3044 37.9456L31.1595 28.8008C31.0735 28.7148 30.9826 28.6368 30.8876 28.5667ZM31.5 19.4375C31.5 26.6517 25.6517 32.5 18.4375 32.5C11.2233 32.5 5.375 26.6517 5.375 19.4375C5.375 12.2233 11.2233 6.375 18.4375 6.375C25.6517 6.375 31.5 12.2233 31.5 19.4375Z" fill="#FFDEBA"/>
<path d="M18.4375 3.5C27.2395 3.5 34.375 10.6355 34.375 19.4375C34.375 22.7991 33.3312 25.9171 31.5537 28.4883L40.6582 37.5918C41.781 38.7146 41.781 40.5354 40.6582 41.6582C39.5354 42.781 37.7146 42.781 36.5918 41.6582L27.4883 32.5537C24.9171 34.3312 21.7991 35.375 18.4375 35.375C9.63546 35.375 2.5 28.2395 2.5 19.4375C2.5 10.6355 9.63546 3.5 18.4375 3.5ZM18.4375 6.875C11.4994 6.875 5.875 12.4994 5.875 19.4375C5.875 26.3756 11.4994 32 18.4375 32C25.3756 32 31 26.3756 31 19.4375C31 12.4994 25.3756 6.875 18.4375 6.875Z" stroke="#FFDEBA"/>
</g>
<defs>
<filter id="filter0_d_479_940" x="0" y="0" width="50" height="50" filterUnits="userSpaceOnUse" color-interpolation-filters="sRGB">
<feFlood flood-opacity="0" result="BackgroundImageFix"/>
<feColorMatrix in="SourceAlpha" type="matrix" values="0 0 0 0 0 0 0 0 0 0 0 0 0 0 0 0 0 0 127 0" result="hardAlpha"/>
<feOffset dx="3" dy="2"/>
<feGaussianBlur stdDeviation="2.5"/>
<feComposite in2="hardAlpha" operator="out"/>
<feColorMatrix type="matrix" values="0 0 0 0 0 0 0 0 0 0 0 0 0 0 0 0 0 0 0.3 0"/>
<feBlend mode="normal" in2="BackgroundImageFix" result="effect1_dropShadow_479_940"/>
<feBlend mode="normal" in="SourceGraphic" in2="effect1_dropShadow_479_940" result="shape"/>
</filter>
</defs>
</svg>
