<svg width="185" height="69" viewBox="0 0 185 69" fill="none" xmlns="http://www.w3.org/2000/svg">
<path d="M76.0791 1.00586C82.8672 0.852406 86.6383 3.46472 88.6006 5.59277V5.59375C90.2895 7.45211 91.356 9.7437 91.6738 12.1748C91.6753 12.2099 91.6782 12.2548 91.6826 12.3066C91.6922 12.4192 91.7123 12.5806 91.7549 12.7568L91.9395 13.5215H93.2031C100.284 13.3832 162.526 12.25 168.312 12.25C170.366 12.25 172.809 12.3688 175.152 12.9531C177.49 13.536 179.662 14.5665 181.258 16.3389C183.106 18.5815 184.072 21.3644 183.996 24.2061V24.21C183.996 24.213 183.995 24.2176 183.995 24.2236C183.995 24.2361 183.994 24.2551 183.993 24.2793C183.991 24.328 183.987 24.3996 183.983 24.4873C183.975 24.663 183.964 24.9055 183.947 25.1719C183.913 25.7217 183.864 26.3184 183.805 26.6641L183.802 26.6816L183.8 26.6992C183.365 29.9276 182.077 33 180.052 35.626C178.03 38.248 175.341 40.3386 172.233 41.6973C167.824 43.4197 163.257 44.7483 158.591 45.667C145.277 48.1354 43.86 65.5203 37.3896 66.5664C34.5318 67.0263 29.5621 67.6184 24.2461 67.3057C18.91 66.9918 13.3526 65.7729 9.21289 62.7207L9.2041 62.7148L9.19531 62.708C6.76749 60.998 4.77515 58.7907 3.36328 56.252C1.95162 53.7134 1.15544 50.9061 1.03027 48.0381V48.0332L1.01074 47.5527C0.712554 37.4649 6.56773 27.1126 17.8789 18.376C24.3328 13.4146 33.3019 10.3025 39.5459 9.08398L39.5557 9.08203C45.688 7.81686 52.0661 8.18657 57.9922 10.1504L57.9932 10.1514C58.0151 10.1602 58.0455 10.1725 58.082 10.1865C58.1541 10.2141 58.2557 10.251 58.3691 10.2871L59.0312 10.498L59.46 9.9502C59.496 9.90411 59.5377 9.85527 59.5732 9.81543C59.5903 9.79627 59.6048 9.78075 59.6143 9.77051C59.619 9.76542 59.6231 9.76183 59.625 9.75977V9.75781H59.626V9.75879L59.6484 9.73535L59.6689 9.70996C62.3652 6.47842 68.0381 1.20808 76.0791 1.00586Z" stroke="#FFDEBA" stroke-width="2"/>
<path d="M72.4607 11.5189C73.9725 10.5213 75.8052 10.0602 77.6394 10.2181L77.6472 10.2191H77.655C81.3177 10.415 82.9284 12.6722 82.7595 14.6664V14.6683C82.63 16.2439 81.8 17.3694 80.5701 18.1361C79.4018 18.8643 77.8744 19.2637 76.2791 19.3705L75.9587 19.3881C73.5665 19.477 71.835 18.8387 70.9978 17.7474C70.7037 17.3288 70.5004 16.8603 70.3972 16.3695L70.3591 16.1556C70.2741 15.5832 70.3259 14.9996 70.5115 14.4486L70.5193 14.4261L70.5242 14.4027C70.7916 13.2574 71.4754 12.234 72.4607 11.5189Z" fill="#FFDEBA" stroke="#FFDEBA"/>
<mask id="path-3-inside-1_446_644" fill="white">
<path d="M177.227 25.624C177.005 26.1528 176.669 26.6309 176.241 27.0274C175.813 27.4239 175.302 27.73 174.743 27.9258L174.328 28.0178C174.328 28.0178 174.689 25.6585 174.707 24.945C174.779 21.671 173.979 18.2762 168.662 18.5581C166.374 18.8199 164.251 19.834 162.657 21.4271C161.063 23.0203 160.097 25.0936 159.923 27.2928V27.333V27.3675C159.917 27.4077 159.917 27.4484 159.923 27.4884C159.117 29.508 157.632 32.3679 156.567 32.4886C156.458 32.5098 156.345 32.5028 156.239 32.4684C156.133 32.4341 156.039 32.3735 155.966 32.293C155.859 32.1844 155.777 32.0557 155.725 31.915C155.673 31.7743 155.653 31.6246 155.665 31.4759C155.777 30.517 155.979 29.5698 156.267 28.6449C156.719 27.0391 157.041 25.4019 157.229 23.7483C157.632 19.7665 155.064 18.9781 152.417 19.1449C150.832 19.2899 149.338 19.9219 148.159 20.9461L147.209 21.9759C147.209 21.9759 147.654 20.0024 147.78 19.4672C147.028 19.5018 142.319 19.6514 141.838 19.6743L139.739 27.7818C139.108 28.6576 138.202 29.3186 137.152 29.6691L136.755 29.7727L136.719 29.3699C136.685 28.9489 136.615 28.5312 136.509 28.1214C136.388 27.2237 135.553 24.0935 132.383 24.3582C124.221 25.0717 124.45 34.7213 129.316 33.3806L129.875 33.2079L129.779 33.7833C129.129 37.6097 127.409 39.6468 125.069 39.9517C124.897 39.9725 124.722 39.9558 124.558 39.903C124.393 39.8503 124.243 39.7626 124.119 39.6468C123.888 39.3869 123.715 39.0841 123.611 38.7574C123.507 38.4306 123.476 38.0869 123.517 37.7479C123.566 35.8548 127.481 20.1519 127.481 20.1519C127.481 20.1519 120.426 20.3936 119.903 20.4282C119.536 21.8666 117.966 28.1214 117.966 28.127L117.738 28.95C117.431 29.9972 117.226 30.6762 117.088 31.4299V31.4702V31.5162C117.066 31.5581 117.05 31.6026 117.04 31.6486C115.837 34.6062 113.768 37.8055 112.174 37.978C112.028 37.998 111.88 37.9855 111.74 37.9416C111.6 37.8977 111.473 37.8236 111.368 37.725C111.252 37.6066 111.163 37.4673 111.105 37.315C111.047 37.1626 111.022 37.0005 111.031 36.8388L111.17 35.5555C111.17 35.5555 115.205 21.4754 115.47 20.5605C114.568 20.5605 106.833 20.7043 106.833 20.7043L106.075 23.2706C105.871 21.1762 101.264 18.3796 97.8054 21.366C94.1545 24.5135 93.1563 29.2375 92.6028 33.9156L92.5549 34.0998C91.7669 39.6928 90.4075 43.5538 86.3298 44.0486C85.5312 44.2133 84.6979 44.1139 83.966 43.7666C85.1371 42.9851 86.133 41.9874 86.895 40.8321C88.4109 38.4269 87.7312 36.3209 86.1492 35.337C82.9917 33.3403 79.5334 35.7686 78.9319 38.847C78.6419 40.3795 78.9683 41.9602 79.8461 43.2718C78.8063 43.9792 77.6213 44.4675 76.3697 44.7047C75.9881 44.7519 75.6004 44.7124 75.2377 44.5894C74.8752 44.4665 74.548 44.2634 74.2826 43.9968C73.3806 42.8461 74.6135 39.0713 74.7758 38.5995C74.7758 38.5995 80.3634 22.6607 80.6942 21.6825L68.8937 22.0681C68.5447 23.0635 67.2457 26.9648 65.8863 30.5553C63.1979 37.5754 55.5475 47.1904 47.6565 49.1237C43.4462 50.1766 40.1804 49.9926 38.0874 48.7554C35.2546 47.0868 33.6366 43.0762 34.7252 37.489C35.1609 34.8112 36.0271 32.2142 37.2934 29.79C43.9093 16.3658 54.5069 19.3982 53.8575 20.4224C53.1564 20.6474 52.4812 20.9404 51.8425 21.2969C50.1465 22.1659 47.4158 24.6976 47.3075 27.8451C47.2212 28.7039 47.3237 29.5705 47.6087 30.3891C47.8935 31.2076 48.3543 31.9601 48.9615 32.598C49.5876 33.1346 50.3286 33.534 51.1326 33.7686C51.9366 34.0032 52.7843 34.0671 53.6168 33.956C55.7023 33.8117 57.6548 32.9231 59.0876 31.4661C60.5202 30.0092 61.3282 28.0904 61.3515 26.0901C61.4411 25.0264 61.301 23.9564 60.9399 22.9467C60.5788 21.9371 60.0043 21.0092 59.2523 20.2209C56.9188 17.8733 54.134 16.6937 47.9993 16.8721C38.5264 17.1138 24.0615 23.5987 19.9294 38.0184C18.5341 42.869 20.3746 48.7209 23.4119 51.3966C27.6222 55.0907 32.8848 56.4544 42.057 54.8029C50.2486 53.3184 56.9608 47.9959 61.9048 42.3914C61.9048 42.4836 61.9048 42.5641 61.9048 42.6503C60.7019 46.753 62.3199 51.1319 69.4952 50.2573C73.8113 49.6011 77.903 47.9742 81.4338 45.5102C82.5529 46.3181 83.8365 46.8924 85.2021 47.1957C86.5676 47.4989 87.9846 47.5245 89.3611 47.2709C90.7143 47.0753 94.2087 46.1719 97.2702 41.9944C99.676 38.6743 100.909 32.2125 101.576 28.7025C101.717 27.6255 101.979 26.5663 102.359 25.5435C102.545 25.0307 102.93 24.6061 103.435 24.3582C104.722 23.8403 105.39 25.0428 105.125 25.9348C104.86 26.8267 103.549 31.2746 103.549 31.2919L103.291 31.9882C102.333 34.3096 101.745 36.7555 101.546 39.244C101.46 40.0319 101.553 40.8283 101.817 41.5791C102.082 42.3297 102.513 43.0171 103.08 43.5941C103.621 44.0426 104.263 44.3646 104.956 44.5344C105.649 44.7041 106.374 44.7171 107.074 44.5723C111.585 43.9335 114.784 39.5605 116.306 37.0115L116.517 36.6546L116.829 36.1425L117.004 37.1149C117.731 40.9184 120.865 42.4432 125.58 41.7815C131.697 40.9184 135.366 37.886 136.497 32.6037L136.551 32.3794L136.767 32.2988C137.362 32.0904 137.926 31.81 138.445 31.4644L138.903 31.1652L136.731 39.6295C137.597 39.5028 143.347 38.5823 143.792 38.5132C143.919 38.0069 146.421 27.7589 146.421 27.7589C146.854 25.975 148.069 22.5802 149.428 22.5111C149.564 22.5025 149.701 22.5239 149.827 22.5738C149.953 22.6238 150.066 22.7007 150.156 22.7988C150.475 23.174 150.637 23.6505 150.607 24.1337C150.484 25.4402 150.201 26.7282 149.765 27.9718C149.156 29.9273 148.725 31.9295 148.478 33.956C148.147 37.5236 151.286 37.5005 152.213 37.3623C154.432 37.0516 157.385 35.9526 159.893 30.6704L160.014 31.2457C160.268 32.5927 161.063 33.7913 162.228 34.5857C163.393 35.3801 164.837 35.7075 166.251 35.4981C167.862 35.3199 169.392 34.7242 170.676 33.7751C171.96 32.826 172.948 31.5595 173.534 30.1123L173.63 29.9051L173.847 29.8763C174.739 29.6691 175.559 29.2411 176.224 28.6352C176.889 28.0292 177.376 27.2666 177.636 26.4239C177.533 26.1429 177.395 25.8745 177.227 25.624ZM82.0534 41.9024C80.4595 39.5087 82.0114 36.81 83.6232 36.8675C84.8802 36.9308 85.3855 37.6732 84.6818 39.1691C84.0183 40.2483 83.1224 41.18 82.0534 41.9024ZM130.548 30.4575C130.139 30.8607 129.584 31.0975 128.997 31.1192C128.161 31.2574 127.956 30.8258 127.92 30.6358C127.917 30.1956 128.039 29.7628 128.273 29.3837C128.507 29.0045 128.845 28.6935 129.249 28.4839C129.404 28.4049 129.579 28.3684 129.754 28.3785C129.929 28.3886 130.098 28.445 130.242 28.5413C130.601 29.1173 130.713 29.8042 130.554 30.4575H130.548ZM170.112 27.8222C169.776 27.5296 169.56 27.1329 169.5 26.7022C169.441 26.2715 169.542 25.8346 169.787 25.4687C169.867 25.3638 169.982 25.2877 170.113 25.2533C170.244 25.2188 170.384 25.2278 170.509 25.2788C170.485 26.1388 170.352 26.9929 170.112 27.8222ZM170.617 22.9254V23.0635C170.617 23.0635 168.211 23.1499 167.947 26.6138C167.91 27.2177 168.043 27.8199 168.333 28.3575C168.623 28.8951 169.059 29.3482 169.595 29.6691L169.486 30.1238C168.981 31.5853 168.283 33.1676 166.912 33.3345C166.711 33.3736 166.504 33.3682 166.306 33.3182C166.108 33.2683 165.924 33.1755 165.769 33.0469C165.312 32.6499 165.114 32.2816 165.168 30.9409C165.24 27.8222 166.972 20.0081 169.27 19.9161C169.427 19.9091 169.584 19.9371 169.728 19.998C169.872 20.0588 169.999 20.151 170.1 20.2671C170.373 20.6522 170.563 21.0859 170.658 21.5426C170.753 21.9992 170.751 22.4694 170.653 22.9254H170.617Z"/>
</mask>
<path d="M177.227 25.624C177.005 26.1528 176.669 26.6309 176.241 27.0274C175.813 27.4239 175.302 27.73 174.743 27.9258L174.328 28.0178C174.328 28.0178 174.689 25.6585 174.707 24.945C174.779 21.671 173.979 18.2762 168.662 18.5581C166.374 18.8199 164.251 19.834 162.657 21.4271C161.063 23.0203 160.097 25.0936 159.923 27.2928V27.333V27.3675C159.917 27.4077 159.917 27.4484 159.923 27.4884C159.117 29.508 157.632 32.3679 156.567 32.4886C156.458 32.5098 156.345 32.5028 156.239 32.4684C156.133 32.4341 156.039 32.3735 155.966 32.293C155.859 32.1844 155.777 32.0557 155.725 31.915C155.673 31.7743 155.653 31.6246 155.665 31.4759C155.777 30.517 155.979 29.5698 156.267 28.6449C156.719 27.0391 157.041 25.4019 157.229 23.7483C157.632 19.7665 155.064 18.9781 152.417 19.1449C150.832 19.2899 149.338 19.9219 148.159 20.9461L147.209 21.9759C147.209 21.9759 147.654 20.0024 147.78 19.4672C147.028 19.5018 142.319 19.6514 141.838 19.6743L139.739 27.7818C139.108 28.6576 138.202 29.3186 137.152 29.6691L136.755 29.7727L136.719 29.3699C136.685 28.9489 136.615 28.5312 136.509 28.1214C136.388 27.2237 135.553 24.0935 132.383 24.3582C124.221 25.0717 124.45 34.7213 129.316 33.3806L129.875 33.2079L129.779 33.7833C129.129 37.6097 127.409 39.6468 125.069 39.9517C124.897 39.9725 124.722 39.9558 124.558 39.903C124.393 39.8503 124.243 39.7626 124.119 39.6468C123.888 39.3869 123.715 39.0841 123.611 38.7574C123.507 38.4306 123.476 38.0869 123.517 37.7479C123.566 35.8548 127.481 20.1519 127.481 20.1519C127.481 20.1519 120.426 20.3936 119.903 20.4282C119.536 21.8666 117.966 28.1214 117.966 28.127L117.738 28.95C117.431 29.9972 117.226 30.6762 117.088 31.4299V31.4702V31.5162C117.066 31.5581 117.05 31.6026 117.04 31.6486C115.837 34.6062 113.768 37.8055 112.174 37.978C112.028 37.998 111.88 37.9855 111.74 37.9416C111.6 37.8977 111.473 37.8236 111.368 37.725C111.252 37.6066 111.163 37.4673 111.105 37.315C111.047 37.1626 111.022 37.0005 111.031 36.8388L111.17 35.5555C111.17 35.5555 115.205 21.4754 115.47 20.5605C114.568 20.5605 106.833 20.7043 106.833 20.7043L106.075 23.2706C105.871 21.1762 101.264 18.3796 97.8054 21.366C94.1545 24.5135 93.1563 29.2375 92.6028 33.9156L92.5549 34.0998C91.7669 39.6928 90.4075 43.5538 86.3298 44.0486C85.5312 44.2133 84.6979 44.1139 83.966 43.7666C85.1371 42.9851 86.133 41.9874 86.895 40.8321C88.4109 38.4269 87.7312 36.3209 86.1492 35.337C82.9917 33.3403 79.5334 35.7686 78.9319 38.847C78.6419 40.3795 78.9683 41.9602 79.8461 43.2718C78.8063 43.9792 77.6213 44.4675 76.3697 44.7047C75.9881 44.7519 75.6004 44.7124 75.2377 44.5894C74.8752 44.4665 74.548 44.2634 74.2826 43.9968C73.3806 42.8461 74.6135 39.0713 74.7758 38.5995C74.7758 38.5995 80.3634 22.6607 80.6942 21.6825L68.8937 22.0681C68.5447 23.0635 67.2457 26.9648 65.8863 30.5553C63.1979 37.5754 55.5475 47.1904 47.6565 49.1237C43.4462 50.1766 40.1804 49.9926 38.0874 48.7554C35.2546 47.0868 33.6366 43.0762 34.7252 37.489C35.1609 34.8112 36.0271 32.2142 37.2934 29.79C43.9093 16.3658 54.5069 19.3982 53.8575 20.4224C53.1564 20.6474 52.4812 20.9404 51.8425 21.2969C50.1465 22.1659 47.4158 24.6976 47.3075 27.8451C47.2212 28.7039 47.3237 29.5705 47.6087 30.3891C47.8935 31.2076 48.3543 31.9601 48.9615 32.598C49.5876 33.1346 50.3286 33.534 51.1326 33.7686C51.9366 34.0032 52.7843 34.0671 53.6168 33.956C55.7023 33.8117 57.6548 32.9231 59.0876 31.4661C60.5202 30.0092 61.3282 28.0904 61.3515 26.0901C61.4411 25.0264 61.301 23.9564 60.9399 22.9467C60.5788 21.9371 60.0043 21.0092 59.2523 20.2209C56.9188 17.8733 54.134 16.6937 47.9993 16.8721C38.5264 17.1138 24.0615 23.5987 19.9294 38.0184C18.5341 42.869 20.3746 48.7209 23.4119 51.3966C27.6222 55.0907 32.8848 56.4544 42.057 54.8029C50.2486 53.3184 56.9608 47.9959 61.9048 42.3914C61.9048 42.4836 61.9048 42.5641 61.9048 42.6503C60.7019 46.753 62.3199 51.1319 69.4952 50.2573C73.8113 49.6011 77.903 47.9742 81.4338 45.5102C82.5529 46.3181 83.8365 46.8924 85.2021 47.1957C86.5676 47.4989 87.9846 47.5245 89.3611 47.2709C90.7143 47.0753 94.2087 46.1719 97.2702 41.9944C99.676 38.6743 100.909 32.2125 101.576 28.7025C101.717 27.6255 101.979 26.5663 102.359 25.5435C102.545 25.0307 102.93 24.6061 103.435 24.3582C104.722 23.8403 105.39 25.0428 105.125 25.9348C104.86 26.8267 103.549 31.2746 103.549 31.2919L103.291 31.9882C102.333 34.3096 101.745 36.7555 101.546 39.244C101.46 40.0319 101.553 40.8283 101.817 41.5791C102.082 42.3297 102.513 43.0171 103.08 43.5941C103.621 44.0426 104.263 44.3646 104.956 44.5344C105.649 44.7041 106.374 44.7171 107.074 44.5723C111.585 43.9335 114.784 39.5605 116.306 37.0115L116.517 36.6546L116.829 36.1425L117.004 37.1149C117.731 40.9184 120.865 42.4432 125.58 41.7815C131.697 40.9184 135.366 37.886 136.497 32.6037L136.551 32.3794L136.767 32.2988C137.362 32.0904 137.926 31.81 138.445 31.4644L138.903 31.1652L136.731 39.6295C137.597 39.5028 143.347 38.5823 143.792 38.5132C143.919 38.0069 146.421 27.7589 146.421 27.7589C146.854 25.975 148.069 22.5802 149.428 22.5111C149.564 22.5025 149.701 22.5239 149.827 22.5738C149.953 22.6238 150.066 22.7007 150.156 22.7988C150.475 23.174 150.637 23.6505 150.607 24.1337C150.484 25.4402 150.201 26.7282 149.765 27.9718C149.156 29.9273 148.725 31.9295 148.478 33.956C148.147 37.5236 151.286 37.5005 152.213 37.3623C154.432 37.0516 157.385 35.9526 159.893 30.6704L160.014 31.2457C160.268 32.5927 161.063 33.7913 162.228 34.5857C163.393 35.3801 164.837 35.7075 166.251 35.4981C167.862 35.3199 169.392 34.7242 170.676 33.7751C171.96 32.826 172.948 31.5595 173.534 30.1123L173.63 29.9051L173.847 29.8763C174.739 29.6691 175.559 29.2411 176.224 28.6352C176.889 28.0292 177.376 27.2666 177.636 26.4239C177.533 26.1429 177.395 25.8745 177.227 25.624ZM82.0534 41.9024C80.4595 39.5087 82.0114 36.81 83.6232 36.8675C84.8802 36.9308 85.3855 37.6732 84.6818 39.1691C84.0183 40.2483 83.1224 41.18 82.0534 41.9024ZM130.548 30.4575C130.139 30.8607 129.584 31.0975 128.997 31.1192C128.161 31.2574 127.956 30.8258 127.92 30.6358C127.917 30.1956 128.039 29.7628 128.273 29.3837C128.507 29.0045 128.845 28.6935 129.249 28.4839C129.404 28.4049 129.579 28.3684 129.754 28.3785C129.929 28.3886 130.098 28.445 130.242 28.5413C130.601 29.1173 130.713 29.8042 130.554 30.4575H130.548ZM170.112 27.8222C169.776 27.5296 169.56 27.1329 169.5 26.7022C169.441 26.2715 169.542 25.8346 169.787 25.4687C169.867 25.3638 169.982 25.2877 170.113 25.2533C170.244 25.2188 170.384 25.2278 170.509 25.2788C170.485 26.1388 170.352 26.9929 170.112 27.8222ZM170.617 22.9254V23.0635C170.617 23.0635 168.211 23.1499 167.947 26.6138C167.91 27.2177 168.043 27.8199 168.333 28.3575C168.623 28.8951 169.059 29.3482 169.595 29.6691L169.486 30.1238C168.981 31.5853 168.283 33.1676 166.912 33.3345C166.711 33.3736 166.504 33.3682 166.306 33.3182C166.108 33.2683 165.924 33.1755 165.769 33.0469C165.312 32.6499 165.114 32.2816 165.168 30.9409C165.24 27.8222 166.972 20.0081 169.27 19.9161C169.427 19.9091 169.584 19.9371 169.728 19.998C169.872 20.0588 169.999 20.151 170.1 20.2671C170.373 20.6522 170.563 21.0859 170.658 21.5426C170.753 21.9992 170.751 22.4694 170.653 22.9254H170.617Z" fill="#FFDEBA" stroke="#FFDEBA" stroke-width="2" mask="url(#path-3-inside-1_446_644)"/>
</svg>
