<svg width="50" height="50" viewBox="0 0 50 50" fill="none" xmlns="http://www.w3.org/2000/svg">
<path d="M49.9927 25.0819C49.9475 38.8889 38.7197 50.0451 24.9147 50C11.1096 49.9548 -0.0449329 38.7254 0.000239469 24.9183C0.0454118 11.1113 11.2732 -0.0449289 25.0782 0.000236869C38.8833 0.0454026 50.0378 11.2748 49.9927 25.0819ZM25.9137 18.4593C23.4792 19.4627 18.6133 21.5401 11.316 24.6915C10.1311 25.1583 9.50978 25.6167 9.45188 26.0666C9.35402 26.8271 10.3057 27.1299 11.6016 27.5421C11.7778 27.5981 11.9605 27.6562 12.1477 27.7178C13.4226 28.1369 15.1378 28.6279 16.0302 28.6501C16.8398 28.6703 17.7444 28.3394 18.7443 27.6575C25.5677 23.0833 29.0898 20.7715 29.3106 20.7222C29.4664 20.6873 29.6823 20.6436 29.828 20.774C29.9737 20.9044 29.9585 21.1504 29.9428 21.2164C29.8472 21.6184 26.0964 25.0832 24.1554 26.8762C23.5503 27.4351 23.1211 27.8316 23.0333 27.9222C22.8367 28.1251 22.6363 28.317 22.4438 28.5014C21.2544 29.6407 20.3624 30.4951 22.4819 31.902C23.5004 32.5781 24.3154 33.137 25.1284 33.6947C26.0164 34.3037 26.902 34.9112 28.0479 35.6678C28.3399 35.8606 28.6187 36.0608 28.8902 36.2557C29.9234 36.9975 30.8517 37.664 32.0015 37.562C32.6697 37.5027 33.3617 36.8768 33.7182 35.0045C34.5608 30.5797 36.2198 20.992 36.6089 17.0402C36.643 16.694 36.603 16.2506 36.5704 16.0559C36.5377 15.8612 36.469 15.5838 36.2168 15.3777C35.9181 15.1337 35.456 15.0809 35.2492 15.0839C34.309 15.0974 32.8649 15.5943 25.9137 18.4593Z" fill="#FFDEBA"/>
</svg>
