<svg width="280" height="54" viewBox="0 0 280 54" fill="none" xmlns="http://www.w3.org/2000/svg">
<path d="M26.1865 0.743164C28.1068 2.8745 29.777 5.15247 31.2568 7.60156L31.5684 8.125C33.1747 10.9103 34.3097 13.9194 35.1484 17.1592L35.335 17.8789L35.9307 17.4346C39.5058 14.7699 43.3823 13.0316 47.5684 11.9121H47.5703C48.9222 11.5466 50.2846 11.283 51.7109 10.9775C51.7169 10.9984 51.7228 11.0153 51.7266 11.0322C52.144 16.0791 51.8258 21.0555 50.4111 25.8926L50.1123 26.8604L50.1084 26.873C50.0793 26.9712 50.0578 27.0344 50.0371 27.0791C50.0334 27.0871 50.0292 27.0933 50.0264 27.0986C50.0025 27.1 49.958 27.1014 49.8857 27.0889L49.8809 27.0879L49.0557 26.9629C40.5548 25.787 32.9338 28.0141 26.2559 33.7188L26.2363 33.7344L26.2197 33.752C26.2174 33.7544 26.213 33.7562 26.209 33.7598C22.9427 30.8962 19.1765 28.7921 14.9658 27.6348H14.9668C10.8185 26.4866 6.61465 26.3321 2.33301 27.0771C0.601404 21.8849 0.236317 16.5429 0.666992 11.0371C6.39247 12.0025 11.6461 13.9188 16.4453 17.4365L17.0479 17.8779L17.2266 17.1533C18.7932 10.8174 21.911 5.50138 26.1865 0.743164Z" fill="#FFDEBA" stroke="#2D282D"/>
<path d="M160.637 14.8577C164.251 14.8577 167.865 14.7946 171.453 14.9514H171.455C172.993 15.0117 174.605 15.4056 176.083 15.9592V15.9583C179.475 17.2444 181.478 19.7944 181.999 23.5881L182 23.5901C182.583 27.6815 181.396 31.0152 178.175 33.4104C176.894 34.3398 175.503 35.0271 173.942 35.969L173.399 36.2961L173.843 36.7473C175.933 38.8736 177.83 41.1682 179.781 43.4192C181.429 45.3197 183.111 47.1827 184.95 48.845C182.171 48.8623 179.244 48.9148 176.307 48.8069H176.308C174.908 48.7518 173.729 47.9296 172.75 46.6418C170.264 43.3624 167.718 40.1467 165.113 36.9329L165.11 36.929L165.02 36.8274C164.551 36.3269 163.806 35.9974 163.147 35.9612L163.142 35.9602C161.068 35.865 158.951 35.929 156.761 35.929H156.261V45.7795H156.262C156.247 46.5656 156.324 47.343 156.623 48.0461C156.751 48.3474 156.92 48.6279 157.13 48.8879C156.85 48.897 156.573 48.9103 156.298 48.926C155.554 48.9685 154.843 49.0208 154.134 49.0227C152.73 49.0265 151.416 48.8283 150.171 47.9797C149.295 47.3823 148.645 46.7207 148.215 45.9436C147.786 45.1687 147.559 44.2487 147.573 43.1096V43.1077C147.634 35.3273 147.604 27.5785 147.573 19.802V19.7961C147.547 18.1987 147.383 16.5042 146.409 14.8577H160.637ZM169.503 20.8479C165.308 20.6267 161.095 20.7844 156.852 20.7844H156.352V30.2219H156.852C159.447 30.2219 162.001 30.2535 164.518 30.2219H164.522C166.13 30.1909 167.841 30.2228 169.513 29.9973H169.516C170.735 29.826 171.724 29.3208 172.41 28.5208C173.095 27.7224 173.442 26.6734 173.458 25.4788C173.474 24.2211 173.177 23.0952 172.504 22.2581C171.865 21.4628 170.929 20.9798 169.743 20.8655L169.503 20.8479Z" fill="#FFDEBA" stroke="#2D282D"/>
<path d="M130.613 14.9202C130.621 15.2595 130.613 15.5992 130.622 15.9778C130.633 16.4893 130.679 17.0462 130.903 17.551C135.262 27.4369 139.652 37.3241 144.103 47.1487V47.1497C144.345 47.6888 144.702 48.1493 145.06 48.5627C145.194 48.7176 145.324 48.8582 145.448 48.9944C142.508 48.9924 139.578 48.9652 136.625 49.0256C136.326 49.0253 136.164 48.9771 136.059 48.9094C135.958 48.844 135.844 48.7186 135.731 48.4299L135.727 48.4221L135.145 47.0461C134.552 45.6713 133.924 44.3002 133.262 42.9465H133.261C133.117 42.6493 132.851 42.3991 132.591 42.2288C132.366 42.0811 132.079 41.9481 131.788 41.9172L131.663 41.9104C126.152 41.8474 120.673 41.8474 115.163 41.9104C114.803 41.9105 114.443 42.0857 114.177 42.2747C113.912 42.4634 113.646 42.7327 113.504 43.0383C112.631 44.7934 111.842 46.7159 111.017 48.4631L111.014 48.469L111.011 48.4758C110.967 48.5769 110.867 48.7204 110.745 48.8362C110.685 48.8921 110.632 48.93 110.593 48.9514C110.58 48.9587 110.571 48.9621 110.566 48.9641C107.473 49.0483 104.381 49.0309 101.387 49.0266C101.562 48.8038 101.741 48.5801 101.922 48.3411C102.3 47.8435 102.669 47.3098 102.935 46.7043C107.264 37.1644 111.504 27.5925 115.771 18.0247L115.772 18.0217C116.004 17.4932 116.295 16.8621 116.357 16.2024C116.397 15.7764 116.343 15.3475 116.153 14.9202H130.613ZM122.973 22.4612C121.126 26.4919 119.401 30.2684 117.555 34.2336L117.224 34.9446H129.628L129.301 34.2356C127.439 30.2042 125.745 26.4943 123.882 22.4602L123.426 21.4729L122.973 22.4612Z" fill="#FFDEBA" stroke="#2D282D"/>
<path d="M235.634 14.6631C241.261 13.889 246.818 14.7843 252.411 15.9473V15.9482C253.799 16.2537 255.19 16.3725 256.611 16.5381C255.538 19.0436 254.445 21.6138 253.351 24.1885C248.004 19.9466 242.009 20.1597 236.022 21.2334H236.021C235.232 21.3763 234.467 21.7615 233.852 22.1992V22.2002C232.962 22.8354 232.494 23.7632 232.557 24.6719C232.621 25.5983 233.232 26.4054 234.283 26.7637V26.7627C236.389 27.5027 238.662 27.7974 240.801 28.1992V28.1982C244.268 28.8626 247.726 29.4565 251.179 30.1494L251.183 30.1504C251.737 30.2572 252.247 30.5035 252.812 30.7783L253.399 31.0586C256.634 32.6566 258.007 35.3701 258.143 38.1064C258.28 40.874 257.149 43.6478 255.387 45.2881L255.386 45.29C252.848 47.6725 249.79 48.6874 246.443 49.1631L245.769 49.251C239.483 49.9942 233.42 48.6653 227.277 47.0918H227.278C226.598 46.9111 225.916 46.7974 225.234 46.6982C224.717 46.6232 224.207 46.5562 223.683 46.4756C224.286 44.1341 224.929 41.6678 225.556 39.2529C231.434 42.7476 237.729 43.5382 244.226 42.999L244.876 42.9404H244.88C245.888 42.8355 246.931 42.3881 247.763 41.8564L247.766 41.8545C248.696 41.2522 249.194 40.334 249.17 39.3994C249.147 38.5174 248.661 37.6932 247.779 37.1816L247.597 37.084C246.231 36.3909 244.693 36.0027 243.219 35.7471H243.218C241.379 35.4153 239.527 35.1393 237.683 34.8643C235.835 34.5886 233.995 34.3134 232.172 33.9844H232.171C231.288 33.8276 230.395 33.5174 229.505 33.1592L228.616 32.7891L228.612 32.7871L228.315 32.6592C225.3 31.3061 223.893 28.9689 223.619 26.5107C223.333 23.9457 224.28 21.2213 226.005 19.3223L226.006 19.3203C228.596 16.4458 231.921 15.1894 235.635 14.6641L235.634 14.6631Z" fill="#FFDEBA" stroke="#2D282D"/>
<path d="M195.636 14.9519C194.858 16.814 194.739 18.7103 194.739 20.5916V36.114C194.739 37.7724 195.095 39.1285 195.898 40.1765C196.703 41.2258 197.907 41.9019 199.476 42.2976L199.478 42.2986C202.101 42.9482 204.778 42.9192 207.368 41.9353L207.369 41.9363C208.565 41.4993 209.48 40.8441 210.089 39.9343C210.695 39.0278 210.967 37.9158 210.968 36.6199C210.994 31.6923 211.044 26.7547 210.974 21.8162L210.937 19.699C210.921 18.7776 210.787 17.8733 210.627 16.9919C210.499 16.2923 210.36 15.6258 210.241 14.9519H221.468C220.289 16.4266 220.255 18.2427 220.23 19.8279V19.8328C220.2 24.6087 220.291 29.3348 220.2 34.0896V34.0916C220.17 36.0468 219.961 38.0523 219.489 39.8933C218.412 44.0724 215.719 46.8751 211.843 48.2693H211.841C205.954 50.4024 199.988 50.4331 194.103 48.3621C191.417 47.4155 189.38 45.9222 187.975 43.9617C186.569 41.9991 185.774 39.5379 185.627 36.6238V36.6228C185.389 32.0876 185.475 27.5475 185.46 22.9626L185.446 20.9949C185.446 20.0048 185.446 18.9788 185.324 17.9783C185.275 16.94 185.043 15.8689 184.26 14.9519H195.636Z" fill="#FFDEBA" stroke="#2D282D"/>
<path d="M77.7266 14.8887C77.507 15.3722 77.425 15.8551 77.4482 16.3369C77.4834 17.0626 77.7527 17.7487 78.0449 18.373V18.374C81.3725 25.6728 84.7007 32.9716 88.0283 40.2705V40.2715C88.0909 40.4235 88.172 40.5561 88.248 40.6787C88.3272 40.8063 88.4098 40.9358 88.5088 41.1123L88.9873 41.9658L89.3984 41.0781C90.6397 38.4017 91.8202 35.851 93.001 33.3008L93.0039 33.2969C95.3046 28.1961 97.6046 23.0959 99.9053 18.0273L99.9062 18.0264C100.163 17.4591 100.362 16.8343 100.34 16.166C100.326 15.7596 100.229 15.355 100.035 14.9512H110.486C110.181 15.446 109.874 15.9544 109.626 16.4707L109.62 16.4824C107.425 21.3781 105.231 26.2663 103.036 31.1543C100.841 36.0424 98.6461 40.931 96.4512 45.8271L96.4492 45.8301C96.2107 46.3728 95.9376 47.0178 95.8975 47.6943C95.8723 48.119 95.939 48.5448 96.1348 48.9639H81.6758C81.8682 48.4962 81.9211 48.028 81.8779 47.5635C81.8126 46.8614 81.5279 46.1859 81.2578 45.5771L81.2568 45.5742L74.5967 30.792C72.3791 25.8646 70.1609 20.9366 67.9355 16.0088H67.9365L67.9307 15.998C67.7465 15.6148 67.5043 15.2442 67.2578 14.8887H77.7266Z" fill="#FFDEBA" stroke="#2D282D"/>
<path d="M3.073 31.4421C10.4804 30.2359 17.1033 32.0035 23.114 36.9011C19.6125 41.0834 17.3823 45.8629 16.3757 51.3083C13.1842 50.2413 9.78812 47.1231 7.20581 43.3035C4.58006 39.4195 2.89073 34.9532 3.073 31.4421Z" fill="#FFDEBA" stroke="#2D282D"/>
<path d="M20.5598 52.866C22.2807 39.342 35.1513 28.7978 49.2874 31.5095C49.1924 32.4518 49.1255 33.3543 48.9475 34.2537L48.9465 34.2595C47.0468 44.4763 38.7983 52.3289 28.9192 53.3748H28.9172C27.5377 53.5272 26.1595 53.4982 24.7297 53.4978L24.4172 53.4685L24.3977 53.4666C23.844 53.4362 23.3484 53.3763 22.803 53.3132H22.804C22.0556 53.2094 21.3266 53.0594 20.5598 52.866Z" fill="#FFDEBA" stroke="#2D282D"/>
<path d="M279.996 34.0074C279.991 34.0074 279.991 34.0174 279.996 34.0174C280.001 34.0174 280.001 34.0074 279.996 34.0074Z" fill="#5F5CFF"/>
</svg>
