<svg width="45" height="45" viewBox="0 0 45 45" fill="none" xmlns="http://www.w3.org/2000/svg">
<path d="M38.2537 6.54312C34.052 2.32003 28.4497 0 22.4839 0C10.1996 0 0.192444 10.0071 0.181753 22.2915C0.181753 26.2259 1.20812 30.0535 3.15395 33.4426L0 45L11.8246 41.8995C15.0855 43.6743 18.7526 44.6151 22.4839 44.6151H22.4946C34.779 44.6151 44.7861 34.608 44.7968 22.3129C44.7861 16.3578 42.4661 10.7555 38.2537 6.54312ZM22.4839 40.8411C19.1482 40.8411 15.8874 39.943 13.0435 38.2537L12.3699 37.8475L5.35637 39.6864L7.22736 32.8439L6.78901 32.1383C4.92871 29.1875 3.9558 25.7769 3.9558 22.2808C3.9558 12.0813 12.2737 3.76336 22.4946 3.76336C27.4447 3.76336 32.0954 5.6985 35.6022 9.19458C39.0983 12.7014 41.0227 17.3521 41.0227 22.3022C41.012 32.5339 32.6942 40.8411 22.4839 40.8411ZM32.6514 26.9637C32.0954 26.6857 29.3585 25.3386 28.8453 25.1461C28.3321 24.9644 27.9579 24.8681 27.5944 25.4241C27.2202 25.98 26.1511 27.2416 25.8303 27.6051C25.5096 27.9793 25.1781 28.0221 24.6222 27.7441C24.0662 27.4661 22.2701 26.8781 20.1425 24.9751C18.4854 23.4996 17.3735 21.6714 17.042 21.1155C16.7213 20.5595 17.0099 20.2602 17.2879 19.9822C17.5338 19.7363 17.8439 19.33 18.1218 19.0093C18.3998 18.6885 18.496 18.4533 18.6778 18.0791C18.8596 17.7049 18.774 17.3842 18.635 17.1062C18.496 16.8282 17.3841 14.0805 16.9137 12.9686C16.4647 11.8781 16.005 12.0278 15.6628 12.0171C15.3421 11.9957 14.9679 11.9957 14.5937 11.9957C14.2195 11.9957 13.6208 12.1347 13.1076 12.6907C12.5944 13.2466 11.1618 14.5937 11.1618 17.3414C11.1618 20.0891 13.1611 22.7299 13.439 23.1041C13.717 23.4783 17.3628 29.1019 22.9543 31.5182C24.2801 32.0955 25.3171 32.4376 26.1297 32.6942C27.4661 33.1219 28.6742 33.0577 29.6364 32.9187C30.7056 32.7584 32.9294 31.5716 33.3998 30.2673C33.8595 28.9629 33.8595 27.851 33.7205 27.6158C33.5815 27.3806 33.2073 27.2416 32.6514 26.9637Z" fill="#FFDEBA"/>
</svg>
